<svg version="1.1" xmlns="http://www.w3.org/2000/svg" xmlns:xlink="http://www.w3.org/1999/xlink" width="532" height="692"><defs/><g><g transform="translate(-102,-22) scale(1,1)"><rect fill="#C0C0C0" stroke="none" x="503" y="167" width="128" height="64" opacity="0.2"/></g><g transform="translate(-102,-22) scale(1,1)"><rect fill="#ffffff" stroke="none" x="496" y="160" width="128" height="64"/></g><g transform="translate(-102,-22) scale(1,1)"><path fill="none" stroke="#000000" d="M 496 160 L 624 160 L 624 224 L 496 224 L 496 160 Z Z" stroke-miterlimit="10"/></g><g transform="translate(-102,-22) scale(1,1)"><path fill="none" stroke="#000000" d="M 496 185 L 624 185" stroke-miterlimit="10"/></g><g transform="translate(-102,-22) scale(1,1)"><g><path fill="none" stroke="none"/><text fill="#000000" stroke="none" font-family="Arial" font-size="13px" font-style="normal" font-weight="bold" text-decoration="none" x="535.78369140625" y="179.5">Adaptee</text></g></g><g transform="translate(-102,-22) scale(1,1)"><g><path fill="none" stroke="none"/><text fill="#000000" stroke="none" font-family="Arial" font-size="13px" font-style="normal" font-weight="normal" text-decoration="none" x="501" y="202.5">+do()</text></g></g><g transform="translate(-102,-22) scale(1,1)"><rect fill="#C0C0C0" stroke="none" x="311" y="39" width="128" height="64" opacity="0.2"/></g><g transform="translate(-102,-22) scale(1,1)"><rect fill="#ffffff" stroke="none" x="304" y="32" width="128" height="64"/></g><g transform="translate(-102,-22) scale(1,1)"><path fill="none" stroke="#000000" d="M 304 32 L 432 32 L 432 96 L 304 96 L 304 32 Z Z" stroke-miterlimit="10"/></g><g transform="translate(-102,-22) scale(1,1)"><path fill="none" stroke="#000000" d="M 304 57 L 432 57" stroke-miterlimit="10"/></g><g transform="translate(-102,-22) scale(1,1)"><g><path fill="none" stroke="none"/><text fill="#000000" stroke="none" font-family="Arial" font-size="13px" font-style="normal" font-weight="bold" text-decoration="none" x="349.9345703125" y="51.5">Target</text></g></g><g transform="translate(-102,-22) scale(1,1)"><g><path fill="none" stroke="none"/><text fill="#000000" stroke="none" font-family="Arial" font-size="13px" font-style="italic" font-weight="normal" text-decoration="none" x="309" y="74.5">+request()</text></g></g><g transform="translate(-102,-22) scale(1,1)"><rect fill="#C0C0C0" stroke="none" x="119" y="39" width="128" height="64" opacity="0.2"/></g><g transform="translate(-102,-22) scale(1,1)"><rect fill="#ffffff" stroke="none" x="112" y="32" width="128" height="64"/></g><g transform="translate(-102,-22) scale(1,1)"><path fill="none" stroke="#000000" d="M 112 32 L 240 32 L 240 96 L 112 96 L 112 32 Z Z" stroke-miterlimit="10"/></g><g transform="translate(-102,-22) scale(1,1)"><path fill="none" stroke="#000000" d="M 112 57 L 240 57" stroke-miterlimit="10"/></g><g transform="translate(-102,-22) scale(1,1)"><g><path fill="none" stroke="none"/><text fill="#000000" stroke="none" font-family="Arial" font-size="13px" font-style="normal" font-weight="bold" text-decoration="none" x="162.2763671875" y="51.5">User</text></g></g><g transform="translate(-102,-22) scale(1,1)"><rect fill="#C0C0C0" stroke="none" x="311" y="167" width="128" height="64" opacity="0.2"/></g><g transform="translate(-102,-22) scale(1,1)"><rect fill="#ffffff" stroke="none" x="304" y="160" width="128" height="64"/></g><g transform="translate(-102,-22) scale(1,1)"><path fill="none" stroke="#000000" d="M 304 160 L 432 160 L 432 224 L 304 224 L 304 160 Z Z" stroke-miterlimit="10"/></g><g transform="translate(-102,-22) scale(1,1)"><path fill="none" stroke="#000000" d="M 304 185 L 432 185" stroke-miterlimit="10"/></g><g transform="translate(-102,-22) scale(1,1)"><g><path fill="none" stroke="none"/><text fill="#000000" stroke="none" font-family="Arial" font-size="13px" font-style="normal" font-weight="bold" text-decoration="none" x="345.234130859375" y="179.5">Adapter</text></g></g><g transform="translate(-102,-22) scale(1,1)"><g><path fill="none" stroke="none"/><text fill="#000000" stroke="none" font-family="Arial" font-size="13px" font-style="italic" font-weight="normal" text-decoration="none" x="309" y="202.5">+request()</text></g></g><g transform="translate(-102,-22) scale(1,1)"><path fill="none" stroke="#000000" d="M 241 64 L 303 64" stroke-miterlimit="10" stroke-dasharray="3"/></g><g transform="translate(-102,-22) scale(1,1)"><path fill="none" stroke="#000000" d="M 292.83732514237585 68.20951775601598 L 303 64 L 292.83732514237585 59.790482243984016" stroke-miterlimit="10"/></g><g transform="translate(-102,-22) scale(1,1)"><path fill="none" stroke="#000000" d="M 368 159 L 368 97" stroke-miterlimit="10"/></g><g transform="translate(-102,-22) scale(1,1)"><path fill="#FFFFFF" stroke="none" d="M 376.419035512032 117.32534971524831 L 368 97 L 359.580964487968 117.32534971524831"/></g><g transform="translate(-102,-22) scale(1,1)"><path fill="none" stroke="#000000" d="M 376.419035512032 117.32534971524831 L 368 97 L 359.580964487968 117.32534971524831 L 376.419035512032 117.32534971524831" stroke-miterlimit="10"/></g><g transform="translate(-102,-22) scale(1,1)"><path fill="none" stroke="#000000" d="M 433 192 L 495 192" stroke-miterlimit="10"/></g><g transform="translate(-102,-22) scale(1,1)"><path fill="#FFFFFF" stroke="none" d="M 474.6746502847517 200.41903551203197 L 495 192 L 474.6746502847517 183.58096448796803"/></g><g transform="translate(-102,-22) scale(1,1)"><path fill="none" stroke="#000000" d="M 474.6746502847517 200.41903551203197 L 495 192 L 474.6746502847517 183.58096448796803 L 474.6746502847517 200.41903551203197" stroke-miterlimit="10"/></g><g transform="translate(-102,-22) scale(1,1)"><path fill="#ffffff" stroke="none" d="M 304 256 L 421 256 L 431 266 L 431 319 L 304 319 L 304 256"/></g><g transform="translate(-102,-22) scale(1,1)"><path fill="none" stroke="#000000" d="M 304 256 L 421 256 L 431 266 L 431 319 L 304 319 L 304 256 L 304 256" stroke-miterlimit="10"/></g><g transform="translate(-102,-22) scale(1,1)"><path fill="none" stroke="#000000" d="M 421 256 L 421 266 L 431 266 L 421 256" stroke-miterlimit="10"/></g><g transform="translate(-102,-22) scale(1,1)"><g><path fill="none" stroke="none"/><text fill="#000000" stroke="none" font-family="Arial" font-size="13px" font-style="normal" font-weight="normal" text-decoration="none" x="309" y="274">+request() </text></g></g><g transform="translate(-102,-22) scale(1,1)"><g><path fill="none" stroke="none"/><text fill="#000000" stroke="none" font-family="Arial" font-size="13px" font-style="normal" font-weight="normal" text-decoration="none" x="309" y="289">{ do() }</text></g></g><g transform="translate(-102,-22) scale(1,1)"><path fill="none" stroke="#000000" d="M 368 255 L 368 225" stroke-miterlimit="10" stroke-dasharray="3"/></g><g transform="translate(-102,-22) scale(1,1)"><rect fill="#C0C0C0" stroke="none" x="311" y="391" width="128" height="64" opacity="0.2"/></g><g transform="translate(-102,-22) scale(1,1)"><rect fill="#ffffff" stroke="none" x="304" y="384" width="128" height="64"/></g><g transform="translate(-102,-22) scale(1,1)"><path fill="none" stroke="#000000" d="M 304 384 L 432 384 L 432 448 L 304 448 L 304 384 Z Z" stroke-miterlimit="10"/></g><g transform="translate(-102,-22) scale(1,1)"><path fill="none" stroke="#000000" d="M 304 409 L 432 409" stroke-miterlimit="10"/></g><g transform="translate(-102,-22) scale(1,1)"><g><path fill="none" stroke="none"/><text fill="#000000" stroke="none" font-family="Arial" font-size="13px" font-style="normal" font-weight="bold" text-decoration="none" x="349.9345703125" y="403.5">Target</text></g></g><g transform="translate(-102,-22) scale(1,1)"><g><path fill="none" stroke="none"/><text fill="#000000" stroke="none" font-family="Arial" font-size="13px" font-style="italic" font-weight="normal" text-decoration="none" x="309" y="426.5">+request()</text></g></g><g transform="translate(-102,-22) scale(1,1)"><rect fill="#C0C0C0" stroke="none" x="311" y="519" width="128" height="96" opacity="0.2"/></g><g transform="translate(-102,-22) scale(1,1)"><rect fill="#ffffff" stroke="none" x="304" y="512" width="128" height="96"/></g><g transform="translate(-102,-22) scale(1,1)"><path fill="none" stroke="#000000" d="M 304 512 L 432 512 L 432 608 L 304 608 L 304 512 Z Z" stroke-miterlimit="10"/></g><g transform="translate(-102,-22) scale(1,1)"><path fill="none" stroke="#000000" d="M 304 537 L 432 537" stroke-miterlimit="10"/></g><g transform="translate(-102,-22) scale(1,1)"><path fill="none" stroke="#000000" d="M 304 560 L 432 560" stroke-miterlimit="10"/></g><g transform="translate(-102,-22) scale(1,1)"><g><path fill="none" stroke="none"/><text fill="#000000" stroke="none" font-family="Arial" font-size="13px" font-style="normal" font-weight="bold" text-decoration="none" x="345.234130859375" y="531.5">Adapter</text></g></g><g transform="translate(-102,-22) scale(1,1)"><g><path fill="none" stroke="none"/><text fill="#000000" stroke="none" font-family="Arial" font-size="13px" font-style="normal" font-weight="normal" text-decoration="none" x="309" y="554.5">-adaptee</text></g></g><g transform="translate(-102,-22) scale(1,1)"><g><path fill="none" stroke="none"/><text fill="#000000" stroke="none" font-family="Arial" font-size="13px" font-style="italic" font-weight="normal" text-decoration="none" x="309" y="577.5">+request()</text></g></g><g transform="translate(-102,-22) scale(1,1)"><rect fill="#C0C0C0" stroke="none" x="503" y="535" width="128" height="64" opacity="0.2"/></g><g transform="translate(-102,-22) scale(1,1)"><rect fill="#ffffff" stroke="none" x="496" y="528" width="128" height="64"/></g><g transform="translate(-102,-22) scale(1,1)"><path fill="none" stroke="#000000" d="M 496 528 L 624 528 L 624 592 L 496 592 L 496 528 Z Z" stroke-miterlimit="10"/></g><g transform="translate(-102,-22) scale(1,1)"><path fill="none" stroke="#000000" d="M 496 553 L 624 553" stroke-miterlimit="10"/></g><g transform="translate(-102,-22) scale(1,1)"><g><path fill="none" stroke="none"/><text fill="#000000" stroke="none" font-family="Arial" font-size="13px" font-style="normal" font-weight="bold" text-decoration="none" x="535.78369140625" y="547.5">Adaptee</text></g></g><g transform="translate(-102,-22) scale(1,1)"><g><path fill="none" stroke="none"/><text fill="#000000" stroke="none" font-family="Arial" font-size="13px" font-style="normal" font-weight="normal" text-decoration="none" x="501" y="570.5">+do()</text></g></g><g transform="translate(-102,-22) scale(1,1)"><rect fill="#C0C0C0" stroke="none" x="119" y="391" width="128" height="64" opacity="0.2"/></g><g transform="translate(-102,-22) scale(1,1)"><rect fill="#ffffff" stroke="none" x="112" y="384" width="128" height="64"/></g><g transform="translate(-102,-22) scale(1,1)"><path fill="none" stroke="#000000" d="M 112 384 L 240 384 L 240 448 L 112 448 L 112 384 Z Z" stroke-miterlimit="10"/></g><g transform="translate(-102,-22) scale(1,1)"><path fill="none" stroke="#000000" d="M 112 409 L 240 409" stroke-miterlimit="10"/></g><g transform="translate(-102,-22) scale(1,1)"><g><path fill="none" stroke="none"/><text fill="#000000" stroke="none" font-family="Arial" font-size="13px" font-style="normal" font-weight="bold" text-decoration="none" x="162.2763671875" y="403.5">User</text></g></g><g transform="translate(-102,-22) scale(1,1)"><path fill="none" stroke="#000000" d="M 241 416 L 303 416" stroke-miterlimit="10" stroke-dasharray="3"/></g><g transform="translate(-102,-22) scale(1,1)"><path fill="none" stroke="#000000" d="M 292.83732514237585 420.209517756016 L 303 416 L 292.83732514237585 411.790482243984" stroke-miterlimit="10"/></g><g transform="translate(-102,-22) scale(1,1)"><path fill="none" stroke="#000000" d="M 368 511 L 368 449" stroke-miterlimit="10"/></g><g transform="translate(-102,-22) scale(1,1)"><path fill="#FFFFFF" stroke="none" d="M 376.419035512032 469.3253497152483 L 368 449 L 359.580964487968 469.3253497152483"/></g><g transform="translate(-102,-22) scale(1,1)"><path fill="none" stroke="#000000" d="M 376.419035512032 469.3253497152483 L 368 449 L 359.580964487968 469.3253497152483 L 376.419035512032 469.3253497152483" stroke-miterlimit="10"/></g><g transform="translate(-102,-22) scale(1,1)"><path fill="none" stroke="#000000" d="M 433 560 L 495 560" stroke-miterlimit="10" stroke-dasharray="3"/></g><g transform="translate(-102,-22) scale(1,1)"><path fill="none" stroke="#000000" d="M 484.83732514237585 564.209517756016 L 495 560 L 484.83732514237585 555.790482243984" stroke-miterlimit="10"/></g><g transform="translate(-102,-22) scale(1,1)"><path fill="#ffffff" stroke="none" d="M 304 640 L 421 640 L 431 650 L 431 703 L 304 703 L 304 640"/></g><g transform="translate(-102,-22) scale(1,1)"><path fill="none" stroke="#000000" d="M 304 640 L 421 640 L 431 650 L 431 703 L 304 703 L 304 640 L 304 640" stroke-miterlimit="10"/></g><g transform="translate(-102,-22) scale(1,1)"><path fill="none" stroke="#000000" d="M 421 640 L 421 650 L 431 650 L 421 640" stroke-miterlimit="10"/></g><g transform="translate(-102,-22) scale(1,1)"><g><path fill="none" stroke="none"/><text fill="#000000" stroke="none" font-family="Arial" font-size="13px" font-style="normal" font-weight="normal" text-decoration="none" x="309" y="658">+request()</text></g></g><g transform="translate(-102,-22) scale(1,1)"><g><path fill="none" stroke="none"/><text fill="#000000" stroke="none" font-family="Arial" font-size="13px" font-style="normal" font-weight="normal" text-decoration="none" x="309" y="673">{ adaptee-&gt;do() }</text></g></g><g transform="translate(-102,-22) scale(1,1)"><path fill="none" stroke="#000000" d="M 368 639 L 368 609" stroke-miterlimit="10" stroke-dasharray="3"/></g></g></svg>