<svg version="1.1" xmlns="http://www.w3.org/2000/svg" xmlns:xlink="http://www.w3.org/1999/xlink" width="708" height="356"><defs/><g><g transform="translate(-54,-230) scale(1,1)"><rect fill="#C0C0C0" stroke="none" x="263" y="359" width="192" height="96" opacity="0.2"/></g><g transform="translate(-54,-230) scale(1,1)"><rect fill="#ffffff" stroke="none" x="256" y="352" width="192" height="96"/></g><g transform="translate(-54,-230) scale(1,1)"><path fill="none" stroke="#000000" d="M 256 352 L 448 352 L 448 448 L 256 448 L 256 352 Z Z" stroke-miterlimit="10"/></g><g transform="translate(-54,-230) scale(1,1)"><path fill="none" stroke="#000000" d="M 256 377 L 448 377" stroke-miterlimit="10"/></g><g transform="translate(-54,-230) scale(1,1)"><path fill="none" stroke="#000000" d="M 256 400 L 448 400" stroke-miterlimit="10"/></g><g transform="translate(-54,-230) scale(1,1)"><g><path fill="none" stroke="none"/><text fill="#000000" stroke="none" font-family="Arial" font-size="13px" font-style="italic" font-weight="bold" text-decoration="none" x="310.09912109375" y="371.5">Abstract Class</text></g></g><g transform="translate(-54,-230) scale(1,1)"><g><path fill="none" stroke="none"/><text fill="#000000" stroke="none" font-family="Arial" font-size="13px" font-style="normal" font-weight="normal" text-decoration="none" x="261" y="394.5">+impl</text></g></g><g transform="translate(-54,-230) scale(1,1)"><g><path fill="none" stroke="none"/><text fill="#000000" stroke="none" font-family="Arial" font-size="13px" font-style="normal" font-weight="normal" text-decoration="none" x="261" y="417.5">+setImpl(Implementor *impl)</text></g></g><g transform="translate(-54,-230) scale(1,1)"><g><path fill="none" stroke="none"/><text fill="#000000" stroke="none" font-family="Arial" font-size="13px" font-style="normal" font-weight="normal" text-decoration="none" x="261" y="432.5">+do()</text></g></g><g transform="translate(-54,-230) scale(1,1)"><rect fill="#C0C0C0" stroke="none" x="519" y="375" width="128" height="64" opacity="0.2"/></g><g transform="translate(-54,-230) scale(1,1)"><rect fill="#ffffff" stroke="none" x="512" y="368" width="128" height="64"/></g><g transform="translate(-54,-230) scale(1,1)"><path fill="none" stroke="#000000" d="M 512 368 L 640 368 L 640 432 L 512 432 L 512 368 Z Z" stroke-miterlimit="10"/></g><g transform="translate(-54,-230) scale(1,1)"><path fill="none" stroke="#000000" d="M 512 393 L 640 393" stroke-miterlimit="10"/></g><g transform="translate(-54,-230) scale(1,1)"><g><path fill="none" stroke="none"/><text fill="#000000" stroke="none" font-family="Arial" font-size="13px" font-style="italic" font-weight="bold" text-decoration="none" x="539.87548828125" y="387.5">Implementor</text></g></g><g transform="translate(-54,-230) scale(1,1)"><g><path fill="none" stroke="none"/><text fill="#000000" stroke="none" font-family="Arial" font-size="13px" font-style="italic" font-weight="normal" text-decoration="none" x="517" y="410.5">+do()</text></g></g><g transform="translate(-54,-230) scale(1,1)"><rect fill="#C0C0C0" stroke="none" x="295" y="519" width="128" height="64" opacity="0.2"/></g><g transform="translate(-54,-230) scale(1,1)"><rect fill="#ffffff" stroke="none" x="288" y="512" width="128" height="64"/></g><g transform="translate(-54,-230) scale(1,1)"><path fill="none" stroke="#000000" d="M 288 512 L 416 512 L 416 576 L 288 576 L 288 512 Z Z" stroke-miterlimit="10"/></g><g transform="translate(-54,-230) scale(1,1)"><path fill="none" stroke="#000000" d="M 288 537 L 416 537" stroke-miterlimit="10"/></g><g transform="translate(-54,-230) scale(1,1)"><g><path fill="none" stroke="none"/><text fill="#000000" stroke="none" font-family="Arial" font-size="13px" font-style="normal" font-weight="bold" text-decoration="none" x="329.60546875" y="531.5">Class A</text></g></g><g transform="translate(-54,-230) scale(1,1)"><path fill="none" stroke="#000000" d="M 511 400 L 449 400" stroke-miterlimit="10"/></g><g transform="translate(-54,-230) scale(1,1)"><path fill="#FFFFFF" stroke="none" d="M 459.16267485762415 395.790482243984 L 449 400 L 459.16267485762415 404.209517756016 L 471 400"/></g><g transform="translate(-54,-230) scale(1,1)"><path fill="none" stroke="#000000" d="M 459.16267485762415 395.790482243984 L 449 400 L 459.16267485762415 404.209517756016 L 471 400 L 459.16267485762415 395.790482243984" stroke-miterlimit="10"/></g><g transform="translate(-54,-230) scale(1,1)"><rect fill="#C0C0C0" stroke="none" x="471" y="503" width="128" height="64" opacity="0.2"/></g><g transform="translate(-54,-230) scale(1,1)"><rect fill="#ffffff" stroke="none" x="464" y="496" width="128" height="64"/></g><g transform="translate(-54,-230) scale(1,1)"><path fill="none" stroke="#000000" d="M 464 496 L 592 496 L 592 560 L 464 560 L 464 496 Z Z" stroke-miterlimit="10"/></g><g transform="translate(-54,-230) scale(1,1)"><path fill="none" stroke="#000000" d="M 464 521 L 592 521" stroke-miterlimit="10"/></g><g transform="translate(-54,-230) scale(1,1)"><g><path fill="none" stroke="none"/><text fill="#000000" stroke="none" font-family="Arial" font-size="13px" font-style="normal" font-weight="bold" text-decoration="none" x="485.734130859375" y="515.5">Implementor A</text></g></g><g transform="translate(-54,-230) scale(1,1)"><g><path fill="none" stroke="none"/><text fill="#000000" stroke="none" font-family="Arial" font-size="13px" font-style="normal" font-weight="normal" text-decoration="none" x="469" y="538.5">+do()</text></g></g><g transform="translate(-54,-230) scale(1,1)"><rect fill="#C0C0C0" stroke="none" x="631" y="503" width="128" height="64" opacity="0.2"/></g><g transform="translate(-54,-230) scale(1,1)"><rect fill="#ffffff" stroke="none" x="624" y="496" width="128" height="64"/></g><g transform="translate(-54,-230) scale(1,1)"><path fill="none" stroke="#000000" d="M 624 496 L 752 496 L 752 560 L 624 560 L 624 496 Z Z" stroke-miterlimit="10"/></g><g transform="translate(-54,-230) scale(1,1)"><path fill="none" stroke="#000000" d="M 624 521 L 752 521" stroke-miterlimit="10"/></g><g transform="translate(-54,-230) scale(1,1)"><g><path fill="none" stroke="none"/><text fill="#000000" stroke="none" font-family="Arial" font-size="13px" font-style="normal" font-weight="bold" text-decoration="none" x="645.734130859375" y="515.5">Implementor B</text></g></g><g transform="translate(-54,-230) scale(1,1)"><g><path fill="none" stroke="none"/><text fill="#000000" stroke="none" font-family="Arial" font-size="13px" font-style="normal" font-weight="normal" text-decoration="none" x="629" y="538.5">+do()</text></g></g><g transform="translate(-54,-230) scale(1,1)"><rect fill="#C0C0C0" stroke="none" x="71" y="375" width="128" height="64" opacity="0.2"/></g><g transform="translate(-54,-230) scale(1,1)"><rect fill="#ffffff" stroke="none" x="64" y="368" width="128" height="64"/></g><g transform="translate(-54,-230) scale(1,1)"><path fill="none" stroke="#000000" d="M 64 368 L 192 368 L 192 432 L 64 432 L 64 368 Z Z" stroke-miterlimit="10"/></g><g transform="translate(-54,-230) scale(1,1)"><path fill="none" stroke="#000000" d="M 64 393 L 192 393" stroke-miterlimit="10"/></g><g transform="translate(-54,-230) scale(1,1)"><g><path fill="none" stroke="none"/><text fill="#000000" stroke="none" font-family="Arial" font-size="13px" font-style="normal" font-weight="bold" text-decoration="none" x="114.2763671875" y="387.5">User</text></g></g><g transform="translate(-54,-230) scale(1,1)"><path fill="none" stroke="#000000" d="M 193 400 L 255 400" stroke-miterlimit="10" stroke-dasharray="3"/></g><g transform="translate(-54,-230) scale(1,1)"><path fill="none" stroke="#000000" d="M 244.83732514237585 404.209517756016 L 255 400 L 244.83732514237585 395.790482243984" stroke-miterlimit="10"/></g><g transform="translate(-54,-230) scale(1,1)"><path fill="none" stroke="#000000" d="M 540 495 L 564 433" stroke-miterlimit="10"/></g><g transform="translate(-54,-230) scale(1,1)"><path fill="#FFFFFF" stroke="none" d="M 564.51399255713 454.9939948997724 L 564 433 L 548.8113446836146 448.9155505616374"/></g><g transform="translate(-54,-230) scale(1,1)"><path fill="none" stroke="#000000" d="M 564.51399255713 454.9939948997724 L 564 433 L 548.8113446836146 448.9155505616374 L 564.51399255713 454.9939948997724" stroke-miterlimit="10"/></g><g transform="translate(-54,-230) scale(1,1)"><path fill="none" stroke="#000000" d="M 659 495 L 605 433" stroke-miterlimit="10"/></g><g transform="translate(-54,-230) scale(1,1)"><path fill="#FFFFFF" stroke="none" d="M 624.6979380591232 442.79751173609634 L 605 433 L 612.0006585896501 453.8564325643471"/></g><g transform="translate(-54,-230) scale(1,1)"><path fill="none" stroke="#000000" d="M 624.6979380591232 442.79751173609634 L 605 433 L 612.0006585896501 453.8564325643471 L 624.6979380591232 442.79751173609634" stroke-miterlimit="10"/></g><g transform="translate(-54,-230) scale(1,1)"><path fill="none" stroke="#000000" d="M 352 511 L 352 449" stroke-miterlimit="10"/></g><g transform="translate(-54,-230) scale(1,1)"><path fill="#FFFFFF" stroke="none" d="M 360.419035512032 469.3253497152483 L 352 449 L 343.580964487968 469.3253497152483"/></g><g transform="translate(-54,-230) scale(1,1)"><path fill="none" stroke="#000000" d="M 360.419035512032 469.3253497152483 L 352 449 L 343.580964487968 469.3253497152483 L 360.419035512032 469.3253497152483" stroke-miterlimit="10"/></g><g transform="translate(-54,-230) scale(1,1)"><path fill="#ffffff" stroke="none" d="M 256 240 L 437 240 L 447 250 L 447 319 L 256 319 L 256 240"/></g><g transform="translate(-54,-230) scale(1,1)"><path fill="none" stroke="#000000" d="M 256 240 L 437 240 L 447 250 L 447 319 L 256 319 L 256 240 L 256 240" stroke-miterlimit="10"/></g><g transform="translate(-54,-230) scale(1,1)"><path fill="none" stroke="#000000" d="M 437 240 L 437 250 L 447 250 L 437 240" stroke-miterlimit="10"/></g><g transform="translate(-54,-230) scale(1,1)"><g><path fill="none" stroke="none"/><text fill="#000000" stroke="none" font-family="Arial" font-size="13px" font-style="normal" font-weight="normal" text-decoration="none" x="261" y="258">+setImpl(Implementor *impl)</text></g></g><g transform="translate(-54,-230) scale(1,1)"><g><path fill="none" stroke="none"/><text fill="#000000" stroke="none" font-family="Arial" font-size="13px" font-style="normal" font-weight="normal" text-decoration="none" x="261" y="273">{ this-&gt;impl = impl }</text></g></g><g transform="translate(-54,-230) scale(1,1)"><g><path fill="none" stroke="none"/><text fill="#000000" stroke="none" font-family="Arial" font-size="13px" font-style="normal" font-weight="normal" text-decoration="none" x="261" y="288">+do()</text></g></g><g transform="translate(-54,-230) scale(1,1)"><g><path fill="none" stroke="none"/><text fill="#000000" stroke="none" font-family="Arial" font-size="13px" font-style="normal" font-weight="normal" text-decoration="none" x="261" y="303">{ impl-&gt;do() }</text></g></g><g transform="translate(-54,-230) scale(1,1)"><g><path fill="none" stroke="none"/></g></g><g transform="translate(-54,-230) scale(1,1)"><path fill="none" stroke="#000000" d="M 352 351 L 352 321" stroke-miterlimit="10" stroke-dasharray="3"/></g></g></svg>