<svg version="1.1" xmlns="http://www.w3.org/2000/svg" xmlns:xlink="http://www.w3.org/1999/xlink" width="660" height="404"><defs/><g><g transform="translate(-54,-22) scale(1,1)"><rect fill="#C0C0C0" stroke="none" x="263" y="39" width="192" height="96" opacity="0.2"/></g><g transform="translate(-54,-22) scale(1,1)"><rect fill="#ffffff" stroke="none" x="256" y="32" width="192" height="96"/></g><g transform="translate(-54,-22) scale(1,1)"><path fill="none" stroke="#000000" d="M 256 32 L 448 32 L 448 128 L 256 128 L 256 32 Z Z" stroke-miterlimit="10"/></g><g transform="translate(-54,-22) scale(1,1)"><path fill="none" stroke="#000000" d="M 256 57 L 448 57" stroke-miterlimit="10"/></g><g transform="translate(-54,-22) scale(1,1)"><path fill="none" stroke="#000000" d="M 256 80 L 448 80" stroke-miterlimit="10"/></g><g transform="translate(-54,-22) scale(1,1)"><g><path fill="none" stroke="none"/><text fill="#000000" stroke="none" font-family="Arial" font-size="13px" font-style="italic" font-weight="bold" text-decoration="none" x="329.2373046875" y="51.5">Handler</text></g></g><g transform="translate(-54,-22) scale(1,1)"><g><path fill="none" stroke="none"/><text fill="#000000" stroke="none" font-family="Arial" font-size="13px" font-style="normal" font-weight="normal" text-decoration="none" x="261" y="74.5">+Handler *handler</text></g></g><g transform="translate(-54,-22) scale(1,1)"><g><path fill="none" stroke="none"/><text fill="#000000" stroke="none" font-family="Arial" font-size="13px" font-style="normal" font-weight="normal" text-decoration="none" x="261" y="97.5">+setHandler(Handler *handler)</text></g></g><g transform="translate(-54,-22) scale(1,1)"><g><path fill="none" stroke="none"/><text fill="#000000" stroke="none" font-family="Arial" font-size="13px" font-style="italic" font-weight="normal" text-decoration="none" x="261" y="112.5">+handle()</text></g></g><g transform="translate(-54,-22) scale(1,1)"><path fill="#ffffff" stroke="none" d="M 480 48 L 629 48 L 639 58 L 639 111 L 480 111 L 480 48"/></g><g transform="translate(-54,-22) scale(1,1)"><path fill="none" stroke="#000000" d="M 480 48 L 629 48 L 639 58 L 639 111 L 480 111 L 480 48 L 480 48" stroke-miterlimit="10"/></g><g transform="translate(-54,-22) scale(1,1)"><path fill="none" stroke="#000000" d="M 629 48 L 629 58 L 639 58 L 629 48" stroke-miterlimit="10"/></g><g transform="translate(-54,-22) scale(1,1)"><g><path fill="none" stroke="none"/><text fill="#000000" stroke="none" font-family="Arial" font-size="13px" font-style="normal" font-weight="normal" text-decoration="none" x="485" y="66">+handle()</text></g></g><g transform="translate(-54,-22) scale(1,1)"><g><path fill="none" stroke="none"/><text fill="#000000" stroke="none" font-family="Arial" font-size="13px" font-style="normal" font-weight="normal" text-decoration="none" x="485" y="81">{ handler-&gt;handle() }</text></g></g><g transform="translate(-54,-22) scale(1,1)"><rect fill="#C0C0C0" stroke="none" x="423" y="199" width="128" height="96" opacity="0.2"/></g><g transform="translate(-54,-22) scale(1,1)"><rect fill="#ffffff" stroke="none" x="416" y="192" width="128" height="96"/></g><g transform="translate(-54,-22) scale(1,1)"><path fill="none" stroke="#000000" d="M 416 192 L 544 192 L 544 288 L 416 288 L 416 192 Z Z" stroke-miterlimit="10"/></g><g transform="translate(-54,-22) scale(1,1)"><path fill="none" stroke="#000000" d="M 416 217 L 544 217" stroke-miterlimit="10"/></g><g transform="translate(-54,-22) scale(1,1)"><g><path fill="none" stroke="none"/><text fill="#000000" stroke="none" font-family="Arial" font-size="13px" font-style="normal" font-weight="bold" text-decoration="none" x="457.60546875" y="211.5">Class B</text></g></g><g transform="translate(-54,-22) scale(1,1)"><g><path fill="none" stroke="none"/><text fill="#000000" stroke="none" font-family="Arial" font-size="13px" font-style="normal" font-weight="normal" text-decoration="none" x="421" y="234.5">+handle()</text></g></g><g transform="translate(-54,-22) scale(1,1)"><g><path fill="none" stroke="none"/><text fill="#000000" stroke="none" font-family="Arial" font-size="13px" font-style="normal" font-weight="normal" text-decoration="none" x="421" y="249.5">-do()</text></g></g><g transform="translate(-54,-22) scale(1,1)"><rect fill="#C0C0C0" stroke="none" x="231" y="199" width="128" height="96" opacity="0.2"/></g><g transform="translate(-54,-22) scale(1,1)"><rect fill="#ffffff" stroke="none" x="224" y="192" width="128" height="96"/></g><g transform="translate(-54,-22) scale(1,1)"><path fill="none" stroke="#000000" d="M 224 192 L 352 192 L 352 288 L 224 288 L 224 192 Z Z" stroke-miterlimit="10"/></g><g transform="translate(-54,-22) scale(1,1)"><path fill="none" stroke="#000000" d="M 224 217 L 352 217" stroke-miterlimit="10"/></g><g transform="translate(-54,-22) scale(1,1)"><g><path fill="none" stroke="none"/><text fill="#000000" stroke="none" font-family="Arial" font-size="13px" font-style="normal" font-weight="bold" text-decoration="none" x="265.60546875" y="211.5">Class A</text></g></g><g transform="translate(-54,-22) scale(1,1)"><g><path fill="none" stroke="none"/><text fill="#000000" stroke="none" font-family="Arial" font-size="13px" font-style="normal" font-weight="normal" text-decoration="none" x="229" y="234.5">+handle()</text></g></g><g transform="translate(-54,-22) scale(1,1)"><g><path fill="none" stroke="none"/><text fill="#000000" stroke="none" font-family="Arial" font-size="13px" font-style="normal" font-weight="normal" text-decoration="none" x="229" y="249.5">-do()</text></g></g><g transform="translate(-54,-22) scale(1,1)"><path fill="none" stroke="#000000" d="M 308 191 L 332 129" stroke-miterlimit="10"/></g><g transform="translate(-54,-22) scale(1,1)"><path fill="#FFFFFF" stroke="none" d="M 332.51399255713 150.99399489977242 L 332 129 L 316.8113446836146 144.91555056163745"/></g><g transform="translate(-54,-22) scale(1,1)"><path fill="none" stroke="#000000" d="M 332.51399255713 150.99399489977242 L 332 129 L 316.8113446836146 144.91555056163745 L 332.51399255713 150.99399489977242" stroke-miterlimit="10"/></g><g transform="translate(-54,-22) scale(1,1)"><path fill="none" stroke="#000000" d="M 449 80 L 479 80" stroke-miterlimit="10" stroke-dasharray="3"/></g><g transform="translate(-54,-22) scale(1,1)"><path fill="none" stroke="#000000" d="M 415 240 L 353 240" stroke-miterlimit="10"/></g><g transform="translate(-54,-22) scale(1,1)"><path fill="#FFFFFF" stroke="none" d="M 373.3253497152483 231.58096448796803 L 353 240 L 373.3253497152483 248.41903551203197"/></g><g transform="translate(-54,-22) scale(1,1)"><path fill="none" stroke="#000000" d="M 373.3253497152483 231.58096448796803 L 353 240 L 373.3253497152483 248.41903551203197 L 373.3253497152483 231.58096448796803" stroke-miterlimit="10"/></g><g transform="translate(-54,-22) scale(1,1)"><path fill="#ffffff" stroke="none" d="M 64 208 L 149 208 L 159 218 L 159 271 L 64 271 L 64 208"/></g><g transform="translate(-54,-22) scale(1,1)"><path fill="none" stroke="#000000" d="M 64 208 L 149 208 L 159 218 L 159 271 L 64 271 L 64 208 L 64 208" stroke-miterlimit="10"/></g><g transform="translate(-54,-22) scale(1,1)"><path fill="none" stroke="#000000" d="M 149 208 L 149 218 L 159 218 L 149 208" stroke-miterlimit="10"/></g><g transform="translate(-54,-22) scale(1,1)"><g><path fill="none" stroke="none"/><text fill="#000000" stroke="none" font-family="Arial" font-size="13px" font-style="normal" font-weight="normal" text-decoration="none" x="69" y="226">+handle()</text></g></g><g transform="translate(-54,-22) scale(1,1)"><g><path fill="none" stroke="none"/><text fill="#000000" stroke="none" font-family="Arial" font-size="13px" font-style="normal" font-weight="normal" text-decoration="none" x="69" y="241">{ do() }</text></g></g><g transform="translate(-54,-22) scale(1,1)"><path fill="none" stroke="#000000" d="M 161 240 L 223 240" stroke-miterlimit="10" stroke-dasharray="3"/></g><g transform="translate(-54,-22) scale(1,1)"><path fill="#ffffff" stroke="none" d="M 608 208 L 693 208 L 703 218 L 703 271 L 608 271 L 608 208"/></g><g transform="translate(-54,-22) scale(1,1)"><path fill="none" stroke="#000000" d="M 608 208 L 693 208 L 703 218 L 703 271 L 608 271 L 608 208 L 608 208" stroke-miterlimit="10"/></g><g transform="translate(-54,-22) scale(1,1)"><path fill="none" stroke="#000000" d="M 693 208 L 693 218 L 703 218 L 693 208" stroke-miterlimit="10"/></g><g transform="translate(-54,-22) scale(1,1)"><g><path fill="none" stroke="none"/><text fill="#000000" stroke="none" font-family="Arial" font-size="13px" font-style="normal" font-weight="normal" text-decoration="none" x="613" y="226">set to handler</text><text fill="#000000" stroke="none" font-family="Arial" font-size="13px" font-style="normal" font-weight="normal" text-decoration="none" x="613" y="239">instance of</text><text fill="#000000" stroke="none" font-family="Arial" font-size="13px" font-style="normal" font-weight="normal" text-decoration="none" x="613" y="252">Class A</text></g></g><g transform="translate(-54,-22) scale(1,1)"><path fill="none" stroke="#000000" d="M 545 240 L 607 240" stroke-miterlimit="10" stroke-dasharray="3"/></g><g transform="translate(-54,-22) scale(1,1)"><path fill="#ffffff" stroke="none" d="M 400 320 L 549 320 L 559 330 L 559 415 L 400 415 L 400 320"/></g><g transform="translate(-54,-22) scale(1,1)"><path fill="none" stroke="#000000" d="M 400 320 L 549 320 L 559 330 L 559 415 L 400 415 L 400 320 L 400 320" stroke-miterlimit="10"/></g><g transform="translate(-54,-22) scale(1,1)"><path fill="none" stroke="#000000" d="M 549 320 L 549 330 L 559 330 L 549 320" stroke-miterlimit="10"/></g><g transform="translate(-54,-22) scale(1,1)"><g><path fill="none" stroke="none"/><text fill="#000000" stroke="none" font-family="Arial" font-size="13px" font-style="normal" font-weight="normal" text-decoration="none" x="405" y="338">+handle()</text></g></g><g transform="translate(-54,-22) scale(1,1)"><g><path fill="none" stroke="none"/><text fill="#000000" stroke="none" font-family="Arial" font-size="13px" font-style="normal" font-weight="normal" text-decoration="none" x="405" y="353">{ if (handler)</text></g></g><g transform="translate(-54,-22) scale(1,1)"><g><path fill="none" stroke="none"/><text fill="#000000" stroke="none" font-family="Arial" font-size="13px" font-style="normal" font-weight="normal" text-decoration="none" x="405" y="368">    Handler::handle()</text></g></g><g transform="translate(-54,-22) scale(1,1)"><g><path fill="none" stroke="none"/><text fill="#000000" stroke="none" font-family="Arial" font-size="13px" font-style="normal" font-weight="normal" text-decoration="none" x="405" y="383">  else</text></g></g><g transform="translate(-54,-22) scale(1,1)"><g><path fill="none" stroke="none"/><text fill="#000000" stroke="none" font-family="Arial" font-size="13px" font-style="normal" font-weight="normal" text-decoration="none" x="405" y="398">    do() }</text></g></g><g transform="translate(-54,-22) scale(1,1)"><path fill="none" stroke="#000000" d="M 480 289 L 480 319" stroke-miterlimit="10" stroke-dasharray="3"/></g></g></svg>