<svg version="1.1" xmlns="http://www.w3.org/2000/svg" xmlns:xlink="http://www.w3.org/1999/xlink" width="532" height="484"><defs/><g><g transform="translate(-118,-86) scale(1,1)"><rect fill="#C0C0C0" stroke="none" x="231" y="103" width="128" height="64" opacity="0.2"/></g><g transform="translate(-118,-86) scale(1,1)"><rect fill="#ffffff" stroke="none" x="224" y="96" width="128" height="64"/></g><g transform="translate(-118,-86) scale(1,1)"><path fill="none" stroke="#000000" d="M 224 96 L 352 96 L 352 160 L 224 160 L 224 96 Z Z" stroke-miterlimit="10"/></g><g transform="translate(-118,-86) scale(1,1)"><path fill="none" stroke="#000000" d="M 224 121 L 352 121" stroke-miterlimit="10"/></g><g transform="translate(-118,-86) scale(1,1)"><g><path fill="none" stroke="none"/><text fill="#000000" stroke="none" font-family="Arial" font-size="13px" font-style="italic" font-weight="bold" text-decoration="none" x="246.09912109375" y="115.5">Abstract Class</text></g></g><g transform="translate(-118,-86) scale(1,1)"><g><path fill="none" stroke="none"/><text fill="#000000" stroke="none" font-family="Arial" font-size="13px" font-style="italic" font-weight="normal" text-decoration="none" x="229" y="138.5">+do()</text></g></g><g transform="translate(-118,-86) scale(1,1)"><rect fill="#C0C0C0" stroke="none" x="327" y="247" width="128" height="96" opacity="0.2"/></g><g transform="translate(-118,-86) scale(1,1)"><rect fill="#ffffff" stroke="none" x="320" y="240" width="128" height="96"/></g><g transform="translate(-118,-86) scale(1,1)"><path fill="none" stroke="#000000" d="M 320 240 L 448 240 L 448 336 L 320 336 L 320 240 Z Z" stroke-miterlimit="10"/></g><g transform="translate(-118,-86) scale(1,1)"><path fill="none" stroke="#000000" d="M 320 265 L 448 265" stroke-miterlimit="10"/></g><g transform="translate(-118,-86) scale(1,1)"><path fill="none" stroke="#000000" d="M 320 288 L 448 288" stroke-miterlimit="10"/></g><g transform="translate(-118,-86) scale(1,1)"><g><path fill="none" stroke="none"/><text fill="#000000" stroke="none" font-family="Arial" font-size="13px" font-style="italic" font-weight="bold" text-decoration="none" x="355.4609375" y="259.5">Decorator</text></g></g><g transform="translate(-118,-86) scale(1,1)"><g><path fill="none" stroke="none"/><text fill="#000000" stroke="none" font-family="Arial" font-size="13px" font-style="normal" font-weight="normal" text-decoration="none" x="325" y="282.5">-abstractClass</text></g></g><g transform="translate(-118,-86) scale(1,1)"><g><path fill="none" stroke="none"/><text fill="#000000" stroke="none" font-family="Arial" font-size="13px" font-style="normal" font-weight="normal" text-decoration="none" x="325" y="305.5">+do()</text></g></g><g transform="translate(-118,-86) scale(1,1)"><path fill="none" stroke="#000000" d="M 355 239 L 308 161" stroke-miterlimit="10"/></g><g transform="translate(-118,-86) scale(1,1)"><path fill="#FFFFFF" stroke="none" d="M 325.7012034807406 174.06397318327836 L 308 161 L 311.2790169892593 182.75426504352995"/></g><g transform="translate(-118,-86) scale(1,1)"><path fill="none" stroke="#000000" d="M 325.7012034807406 174.06397318327836 L 308 161 L 311.2790169892593 182.75426504352995 L 325.7012034807406 174.06397318327836" stroke-miterlimit="10"/></g><g transform="translate(-118,-86) scale(1,1)"><path fill="none" stroke="#000000" d="M 353 128 L 384 128 L 384 239" stroke-miterlimit="10"/></g><g transform="translate(-118,-86) scale(1,1)"><path fill="#FFFFFF" stroke="none" d="M 379.790482243984 228.83732514237585 L 384 239 L 388.209517756016 228.83732514237585 L 384 217"/></g><g transform="translate(-118,-86) scale(1,1)"><path fill="none" stroke="#000000" d="M 379.790482243984 228.83732514237585 L 384 239 L 388.209517756016 228.83732514237585 L 384 217 L 379.790482243984 228.83732514237585" stroke-miterlimit="10"/></g><g transform="translate(-118,-86) scale(1,1)"><path fill="#ffffff" stroke="none" d="M 480 256 L 629 256 L 639 266 L 639 320 L 480 320 L 480 256"/></g><g transform="translate(-118,-86) scale(1,1)"><path fill="none" stroke="#000000" d="M 480 256 L 629 256 L 639 266 L 639 320 L 480 320 L 480 256 L 480 256" stroke-miterlimit="10"/></g><g transform="translate(-118,-86) scale(1,1)"><path fill="none" stroke="#000000" d="M 629 256 L 629 266 L 639 266 L 629 256" stroke-miterlimit="10"/></g><g transform="translate(-118,-86) scale(1,1)"><g><path fill="none" stroke="none"/><text fill="#000000" stroke="none" font-family="Arial" font-size="13px" font-style="normal" font-weight="normal" text-decoration="none" x="485" y="274">+do()</text></g></g><g transform="translate(-118,-86) scale(1,1)"><g><path fill="none" stroke="none"/><text fill="#000000" stroke="none" font-family="Arial" font-size="13px" font-style="normal" font-weight="normal" text-decoration="none" x="485" y="289">{ abstractClass-&gt;do() }</text></g></g><g transform="translate(-118,-86) scale(1,1)"><rect fill="#C0C0C0" stroke="none" x="135" y="247" width="128" height="64" opacity="0.2"/></g><g transform="translate(-118,-86) scale(1,1)"><rect fill="#ffffff" stroke="none" x="128" y="240" width="128" height="64"/></g><g transform="translate(-118,-86) scale(1,1)"><path fill="none" stroke="#000000" d="M 128 240 L 256 240 L 256 304 L 128 304 L 128 240 Z Z" stroke-miterlimit="10"/></g><g transform="translate(-118,-86) scale(1,1)"><path fill="none" stroke="#000000" d="M 128 265 L 256 265" stroke-miterlimit="10"/></g><g transform="translate(-118,-86) scale(1,1)"><g><path fill="none" stroke="none"/><text fill="#000000" stroke="none" font-family="Arial" font-size="13px" font-style="normal" font-weight="bold" text-decoration="none" x="169.60546875" y="259.5">Class A</text></g></g><g transform="translate(-118,-86) scale(1,1)"><g><path fill="none" stroke="none"/><text fill="#000000" stroke="none" font-family="Arial" font-size="13px" font-style="normal" font-weight="normal" text-decoration="none" x="133" y="282.5">+do()</text></g></g><g transform="translate(-118,-86) scale(1,1)"><path fill="none" stroke="#000000" d="M 214 239 L 266 161" stroke-miterlimit="10"/></g><g transform="translate(-118,-86) scale(1,1)"><path fill="#FFFFFF" stroke="none" d="M 261.7305855004323 182.58175386364326 L 266 161 L 247.7204635487784 173.24167256254066"/></g><g transform="translate(-118,-86) scale(1,1)"><path fill="none" stroke="#000000" d="M 261.7305855004323 182.58175386364326 L 266 161 L 247.7204635487784 173.24167256254066 L 261.7305855004323 182.58175386364326" stroke-miterlimit="10"/></g><g transform="translate(-118,-86) scale(1,1)"><rect fill="#C0C0C0" stroke="none" x="231" y="407" width="128" height="64" opacity="0.2"/></g><g transform="translate(-118,-86) scale(1,1)"><rect fill="#ffffff" stroke="none" x="224" y="400" width="128" height="64"/></g><g transform="translate(-118,-86) scale(1,1)"><path fill="none" stroke="#000000" d="M 224 400 L 352 400 L 352 464 L 224 464 L 224 400 Z Z" stroke-miterlimit="10"/></g><g transform="translate(-118,-86) scale(1,1)"><path fill="none" stroke="#000000" d="M 224 425 L 352 425" stroke-miterlimit="10"/></g><g transform="translate(-118,-86) scale(1,1)"><g><path fill="none" stroke="none"/><text fill="#000000" stroke="none" font-family="Arial" font-size="13px" font-style="normal" font-weight="bold" text-decoration="none" x="253.319580078125" y="419.5">Decorator A</text></g></g><g transform="translate(-118,-86) scale(1,1)"><g><path fill="none" stroke="none"/><text fill="#000000" stroke="none" font-family="Arial" font-size="13px" font-style="normal" font-weight="normal" text-decoration="none" x="229" y="442.5">+do()</text></g></g><g transform="translate(-118,-86) scale(1,1)"><g><path fill="none" stroke="none"/><text fill="#000000" stroke="none" font-family="Arial" font-size="13px" font-style="normal" font-weight="normal" text-decoration="none" x="229" y="457.5">+doA()</text></g></g><g transform="translate(-118,-86) scale(1,1)"><rect fill="#C0C0C0" stroke="none" x="423" y="407" width="128" height="64" opacity="0.2"/></g><g transform="translate(-118,-86) scale(1,1)"><rect fill="#ffffff" stroke="none" x="416" y="400" width="128" height="64"/></g><g transform="translate(-118,-86) scale(1,1)"><path fill="none" stroke="#000000" d="M 416 400 L 544 400 L 544 464 L 416 464 L 416 400 Z Z" stroke-miterlimit="10"/></g><g transform="translate(-118,-86) scale(1,1)"><path fill="none" stroke="#000000" d="M 416 425 L 544 425" stroke-miterlimit="10"/></g><g transform="translate(-118,-86) scale(1,1)"><g><path fill="none" stroke="none"/><text fill="#000000" stroke="none" font-family="Arial" font-size="13px" font-style="normal" font-weight="bold" text-decoration="none" x="445.319580078125" y="419.5">Decorator B</text></g></g><g transform="translate(-118,-86) scale(1,1)"><g><path fill="none" stroke="none"/><text fill="#000000" stroke="none" font-family="Arial" font-size="13px" font-style="normal" font-weight="normal" text-decoration="none" x="421" y="442.5">+do()</text></g></g><g transform="translate(-118,-86) scale(1,1)"><g><path fill="none" stroke="none"/><text fill="#000000" stroke="none" font-family="Arial" font-size="13px" font-style="normal" font-weight="normal" text-decoration="none" x="421" y="457.5">+doB()</text></g></g><g transform="translate(-118,-86) scale(1,1)"><path fill="#ffffff" stroke="none" d="M 416 496 L 533 496 L 543 506 L 543 559 L 416 559 L 416 496"/></g><g transform="translate(-118,-86) scale(1,1)"><path fill="none" stroke="#000000" d="M 416 496 L 533 496 L 543 506 L 543 559 L 416 559 L 416 496 L 416 496" stroke-miterlimit="10"/></g><g transform="translate(-118,-86) scale(1,1)"><path fill="none" stroke="#000000" d="M 533 496 L 533 506 L 543 506 L 533 496" stroke-miterlimit="10"/></g><g transform="translate(-118,-86) scale(1,1)"><g><path fill="none" stroke="none"/><text fill="#000000" stroke="none" font-family="Arial" font-size="13px" font-style="normal" font-weight="normal" text-decoration="none" x="421" y="514">+do()</text></g></g><g transform="translate(-118,-86) scale(1,1)"><g><path fill="none" stroke="none"/><text fill="#000000" stroke="none" font-family="Arial" font-size="13px" font-style="normal" font-weight="normal" text-decoration="none" x="421" y="529">{ doB()</text></g></g><g transform="translate(-118,-86) scale(1,1)"><g><path fill="none" stroke="none"/><text fill="#000000" stroke="none" font-family="Arial" font-size="13px" font-style="normal" font-weight="normal" text-decoration="none" x="421" y="544">Decorator::do() }</text></g></g><g transform="translate(-118,-86) scale(1,1)"><path fill="none" stroke="#000000" d="M 479 288 L 449 288" stroke-miterlimit="10" stroke-dasharray="3"/></g><g transform="translate(-118,-86) scale(1,1)"><path fill="none" stroke="#000000" d="M 480 495 L 480 465" stroke-miterlimit="10" stroke-dasharray="3"/></g><g transform="translate(-118,-86) scale(1,1)"><path fill="none" stroke="#000000" d="M 310 399 L 351 337" stroke-miterlimit="10"/></g><g transform="translate(-118,-86) scale(1,1)"><path fill="#FFFFFF" stroke="none" d="M 346.8111435932198 358.597534164885 L 351 337 L 332.7662683644507 349.30979409424737"/></g><g transform="translate(-118,-86) scale(1,1)"><path fill="none" stroke="#000000" d="M 346.8111435932198 358.597534164885 L 351 337 L 332.7662683644507 349.30979409424737 L 346.8111435932198 358.597534164885" stroke-miterlimit="10"/></g><g transform="translate(-118,-86) scale(1,1)"><path fill="none" stroke="#000000" d="M 458 399 L 417 337" stroke-miterlimit="10"/></g><g transform="translate(-118,-86) scale(1,1)"><path fill="#FFFFFF" stroke="none" d="M 435.2337316355493 349.30979409424737 L 417 337 L 421.1888564067802 358.597534164885"/></g><g transform="translate(-118,-86) scale(1,1)"><path fill="none" stroke="#000000" d="M 435.2337316355493 349.30979409424737 L 417 337 L 421.1888564067802 358.597534164885 L 435.2337316355493 349.30979409424737" stroke-miterlimit="10"/></g></g></svg>