<svg version="1.1" xmlns="http://www.w3.org/2000/svg" xmlns:xlink="http://www.w3.org/1999/xlink" width="340" height="212"><defs/><g><g transform="translate(-102,-70) scale(1,1)"><rect fill="#C0C0C0" stroke="none" x="311" y="87" width="128" height="64" opacity="0.2"/></g><g transform="translate(-102,-70) scale(1,1)"><rect fill="#ffffff" stroke="none" x="304" y="80" width="128" height="64"/></g><g transform="translate(-102,-70) scale(1,1)"><path fill="none" stroke="#000000" d="M 304 80 L 432 80 L 432 144 L 304 144 L 304 80 Z Z" stroke-miterlimit="10"/></g><g transform="translate(-102,-70) scale(1,1)"><path fill="none" stroke="#000000" d="M 304 105 L 432 105" stroke-miterlimit="10"/></g><g transform="translate(-102,-70) scale(1,1)"><g><path fill="none" stroke="none"/><text fill="#000000" stroke="none" font-family="Arial" font-size="13px" font-style="italic" font-weight="bold" text-decoration="none" x="346.325927734375" y="99.5">Creator</text></g></g><g transform="translate(-102,-70) scale(1,1)"><g><path fill="none" stroke="none"/><text fill="#000000" stroke="none" font-family="Arial" font-size="13px" font-style="italic" font-weight="normal" text-decoration="none" x="309" y="122.5">+createProduct()</text></g></g><g transform="translate(-102,-70) scale(1,1)"><g><path fill="none" stroke="none"/><text fill="#000000" stroke="none" font-family="Arial" font-size="13px" font-style="normal" font-weight="normal" text-decoration="none" x="309" y="137.5">+do()</text></g></g><g transform="translate(-102,-70) scale(1,1)"><rect fill="#C0C0C0" stroke="none" x="311" y="215" width="128" height="64" opacity="0.2"/></g><g transform="translate(-102,-70) scale(1,1)"><rect fill="#ffffff" stroke="none" x="304" y="208" width="128" height="64"/></g><g transform="translate(-102,-70) scale(1,1)"><path fill="none" stroke="#000000" d="M 304 208 L 432 208 L 432 272 L 304 272 L 304 208 Z Z" stroke-miterlimit="10"/></g><g transform="translate(-102,-70) scale(1,1)"><path fill="none" stroke="#000000" d="M 304 233 L 432 233" stroke-miterlimit="10"/></g><g transform="translate(-102,-70) scale(1,1)"><g><path fill="none" stroke="none"/><text fill="#000000" stroke="none" font-family="Arial" font-size="13px" font-style="normal" font-weight="bold" text-decoration="none" x="340.1845703125" y="227.5">Creator A</text></g></g><g transform="translate(-102,-70) scale(1,1)"><g><path fill="none" stroke="none"/><text fill="#000000" stroke="none" font-family="Arial" font-size="13px" font-style="italic" font-weight="normal" text-decoration="none" x="309" y="250.5">+createProduct()</text></g></g><g transform="translate(-102,-70) scale(1,1)"><path fill="none" stroke="#000000" d="M 368 207 L 368 145" stroke-miterlimit="10"/></g><g transform="translate(-102,-70) scale(1,1)"><path fill="#FFFFFF" stroke="none" d="M 376.419035512032 165.3253497152483 L 368 145 L 359.580964487968 165.3253497152483"/></g><g transform="translate(-102,-70) scale(1,1)"><path fill="none" stroke="#000000" d="M 376.419035512032 165.3253497152483 L 368 145 L 359.580964487968 165.3253497152483 L 376.419035512032 165.3253497152483" stroke-miterlimit="10"/></g><g transform="translate(-102,-70) scale(1,1)"><rect fill="#C0C0C0" stroke="none" x="119" y="87" width="128" height="64" opacity="0.2"/></g><g transform="translate(-102,-70) scale(1,1)"><rect fill="#ffffff" stroke="none" x="112" y="80" width="128" height="64"/></g><g transform="translate(-102,-70) scale(1,1)"><path fill="none" stroke="#000000" d="M 112 80 L 240 80 L 240 144 L 112 144 L 112 80 Z Z" stroke-miterlimit="10"/></g><g transform="translate(-102,-70) scale(1,1)"><path fill="none" stroke="#000000" d="M 112 105 L 240 105" stroke-miterlimit="10"/></g><g transform="translate(-102,-70) scale(1,1)"><g><path fill="none" stroke="none"/><text fill="#000000" stroke="none" font-family="Arial" font-size="13px" font-style="italic" font-weight="bold" text-decoration="none" x="153.59912109375" y="99.5">Product</text></g></g><g transform="translate(-102,-70) scale(1,1)"><rect fill="#C0C0C0" stroke="none" x="119" y="215" width="128" height="64" opacity="0.2"/></g><g transform="translate(-102,-70) scale(1,1)"><rect fill="#ffffff" stroke="none" x="112" y="208" width="128" height="64"/></g><g transform="translate(-102,-70) scale(1,1)"><path fill="none" stroke="#000000" d="M 112 208 L 240 208 L 240 272 L 112 272 L 112 208 Z Z" stroke-miterlimit="10"/></g><g transform="translate(-102,-70) scale(1,1)"><path fill="none" stroke="#000000" d="M 112 233 L 240 233" stroke-miterlimit="10"/></g><g transform="translate(-102,-70) scale(1,1)"><g><path fill="none" stroke="none"/><text fill="#000000" stroke="none" font-family="Arial" font-size="13px" font-style="normal" font-weight="bold" text-decoration="none" x="147.457763671875" y="227.5">Product A</text></g></g><g transform="translate(-102,-70) scale(1,1)"><path fill="none" stroke="#000000" d="M 176 207 L 176 145" stroke-miterlimit="10"/></g><g transform="translate(-102,-70) scale(1,1)"><path fill="#FFFFFF" stroke="none" d="M 184.41903551203197 165.3253497152483 L 176 145 L 167.58096448796803 165.3253497152483"/></g><g transform="translate(-102,-70) scale(1,1)"><path fill="none" stroke="#000000" d="M 184.41903551203197 165.3253497152483 L 176 145 L 167.58096448796803 165.3253497152483 L 184.41903551203197 165.3253497152483" stroke-miterlimit="10"/></g><g transform="translate(-102,-70) scale(1,1)"><path fill="none" stroke="#000000" d="M 303 240 L 241 240" stroke-miterlimit="10" stroke-dasharray="3"/></g><g transform="translate(-102,-70) scale(1,1)"><path fill="none" stroke="#000000" d="M 251.16267485762415 235.790482243984 L 241 240 L 251.16267485762415 244.209517756016" stroke-miterlimit="10"/></g><g transform="translate(-102,-70) scale(1,1)"><path fill="none" stroke="#000000" d="M 303 112 L 241 112" stroke-miterlimit="10" stroke-dasharray="3"/></g><g transform="translate(-102,-70) scale(1,1)"><path fill="none" stroke="#000000" d="M 251.16267485762415 107.79048224398402 L 241 112 L 251.16267485762415 116.20951775601598" stroke-miterlimit="10"/></g></g></svg>