<svg version="1.1" xmlns="http://www.w3.org/2000/svg" xmlns:xlink="http://www.w3.org/1999/xlink" width="532" height="380"><defs/><g><g transform="translate(-102,-38) scale(1,1)"><rect fill="#C0C0C0" stroke="none" x="199" y="55" width="128" height="72" opacity="0.2"/></g><g transform="translate(-102,-38) scale(1,1)"><rect fill="#ffffff" stroke="none" x="192" y="48" width="128" height="72"/></g><g transform="translate(-102,-38) scale(1,1)"><path fill="none" stroke="#000000" d="M 192 48 L 320 48 L 320 120 L 192 120 L 192 48 Z Z" stroke-miterlimit="10"/></g><g transform="translate(-102,-38) scale(1,1)"><path fill="none" stroke="#000000" d="M 192 73 L 320 73" stroke-miterlimit="10"/></g><g transform="translate(-102,-38) scale(1,1)"><g><path fill="none" stroke="none"/><text fill="#000000" stroke="none" font-family="Arial" font-size="13px" font-style="italic" font-weight="bold" text-decoration="none" x="214.09912109375" y="67.5">Abstract Class</text></g></g><g transform="translate(-102,-38) scale(1,1)"><g><path fill="none" stroke="none"/><text fill="#000000" stroke="none" font-family="Arial" font-size="13px" font-style="italic" font-weight="normal" text-decoration="none" x="197" y="90.5">+do()</text></g></g><g transform="translate(-102,-38) scale(1,1)"><rect fill="#C0C0C0" stroke="none" x="279" y="183" width="128" height="96" opacity="0.2"/></g><g transform="translate(-102,-38) scale(1,1)"><rect fill="#ffffff" stroke="none" x="272" y="176" width="128" height="96"/></g><g transform="translate(-102,-38) scale(1,1)"><path fill="none" stroke="#000000" d="M 272 176 L 400 176 L 400 272 L 272 272 L 272 176 Z Z" stroke-miterlimit="10"/></g><g transform="translate(-102,-38) scale(1,1)"><path fill="none" stroke="#000000" d="M 272 201 L 400 201" stroke-miterlimit="10"/></g><g transform="translate(-102,-38) scale(1,1)"><path fill="none" stroke="#000000" d="M 272 224 L 400 224" stroke-miterlimit="10"/></g><g transform="translate(-102,-38) scale(1,1)"><g><path fill="none" stroke="none"/><text fill="#000000" stroke="none" font-family="Arial" font-size="13px" font-style="normal" font-weight="bold" text-decoration="none" x="313.24365234375" y="195.5">Proxy A</text></g></g><g transform="translate(-102,-38) scale(1,1)"><g><path fill="none" stroke="none"/><text fill="#000000" stroke="none" font-family="Arial" font-size="13px" font-style="normal" font-weight="normal" text-decoration="none" x="277" y="218.5">+classA</text></g></g><g transform="translate(-102,-38) scale(1,1)"><g><path fill="none" stroke="none"/><text fill="#000000" stroke="none" font-family="Arial" font-size="13px" font-style="normal" font-weight="normal" text-decoration="none" x="277" y="241.5">+do()</text></g></g><g transform="translate(-102,-38) scale(1,1)"><g><path fill="none" stroke="none"/><text fill="#000000" stroke="none" font-family="Arial" font-size="13px" font-style="normal" font-weight="normal" text-decoration="none" x="277" y="256.5">+doA()</text></g></g><g transform="translate(-102,-38) scale(1,1)"><rect fill="#C0C0C0" stroke="none" x="119" y="183" width="128" height="72" opacity="0.2"/></g><g transform="translate(-102,-38) scale(1,1)"><rect fill="#ffffff" stroke="none" x="112" y="176" width="128" height="72"/></g><g transform="translate(-102,-38) scale(1,1)"><path fill="none" stroke="#000000" d="M 112 176 L 240 176 L 240 248 L 112 248 L 112 176 Z Z" stroke-miterlimit="10"/></g><g transform="translate(-102,-38) scale(1,1)"><path fill="none" stroke="#000000" d="M 112 201 L 240 201" stroke-miterlimit="10"/></g><g transform="translate(-102,-38) scale(1,1)"><g><path fill="none" stroke="none"/><text fill="#000000" stroke="none" font-family="Arial" font-size="13px" font-style="normal" font-weight="bold" text-decoration="none" x="153.60546875" y="195.5">Class A</text></g></g><g transform="translate(-102,-38) scale(1,1)"><g><path fill="none" stroke="none"/><text fill="#000000" stroke="none" font-family="Arial" font-size="13px" font-style="normal" font-weight="normal" text-decoration="none" x="117" y="218.5">+do()</text></g></g><g transform="translate(-102,-38) scale(1,1)"><path fill="none" stroke="#000000" d="M 199 175 L 233 121" stroke-miterlimit="10"/></g><g transform="translate(-102,-38) scale(1,1)"><path fill="#FFFFFF" stroke="none" d="M 229.29484829286758 142.68575225412147 L 233 121 L 215.04591962854101 133.71420457658252"/></g><g transform="translate(-102,-38) scale(1,1)"><path fill="none" stroke="#000000" d="M 229.29484829286758 142.68575225412147 L 233 121 L 215.04591962854101 133.71420457658252 L 229.29484829286758 142.68575225412147" stroke-miterlimit="10"/></g><g transform="translate(-102,-38) scale(1,1)"><path fill="none" stroke="#000000" d="M 308 175 L 277 121" stroke-miterlimit="10"/></g><g transform="translate(-102,-38) scale(1,1)"><path fill="#FFFFFF" stroke="none" d="M 294.42076604663094 134.43565816581196 L 277 121 L 279.8178968062871 142.81878680378716"/></g><g transform="translate(-102,-38) scale(1,1)"><path fill="none" stroke="#000000" d="M 294.42076604663094 134.43565816581196 L 277 121 L 279.8178968062871 142.81878680378716 L 294.42076604663094 134.43565816581196" stroke-miterlimit="10"/></g><g transform="translate(-102,-38) scale(1,1)"><rect fill="#C0C0C0" stroke="none" x="279" y="343" width="128" height="72" opacity="0.2"/></g><g transform="translate(-102,-38) scale(1,1)"><rect fill="#ffffff" stroke="none" x="272" y="336" width="128" height="72"/></g><g transform="translate(-102,-38) scale(1,1)"><path fill="none" stroke="#000000" d="M 272 336 L 400 336 L 400 408 L 272 408 L 272 336 Z Z" stroke-miterlimit="10"/></g><g transform="translate(-102,-38) scale(1,1)"><path fill="none" stroke="#000000" d="M 272 361 L 400 361" stroke-miterlimit="10"/></g><g transform="translate(-102,-38) scale(1,1)"><g><path fill="none" stroke="none"/><text fill="#000000" stroke="none" font-family="Arial" font-size="13px" font-style="normal" font-weight="bold" text-decoration="none" x="322.2763671875" y="355.5">User</text></g></g><g transform="translate(-102,-38) scale(1,1)"><path fill="none" stroke="#000000" d="M 336 335 L 336 273" stroke-miterlimit="10" stroke-dasharray="3"/></g><g transform="translate(-102,-38) scale(1,1)"><path fill="none" stroke="#000000" d="M 340.209517756016 283.16267485762415 L 336 273 L 331.790482243984 283.16267485762415" stroke-miterlimit="10"/></g><g transform="translate(-102,-38) scale(1,1)"><path fill="#ffffff" stroke="none" d="M 464 192 L 613 192 L 623 202 L 623 256 L 464 256 L 464 192"/></g><g transform="translate(-102,-38) scale(1,1)"><path fill="none" stroke="#000000" d="M 464 192 L 613 192 L 623 202 L 623 256 L 464 256 L 464 192 L 464 192" stroke-miterlimit="10"/></g><g transform="translate(-102,-38) scale(1,1)"><path fill="none" stroke="#000000" d="M 613 192 L 613 202 L 623 202 L 613 192" stroke-miterlimit="10"/></g><g transform="translate(-102,-38) scale(1,1)"><g><path fill="none" stroke="none"/><text fill="#000000" stroke="none" font-family="Arial" font-size="13px" font-style="normal" font-weight="normal" text-decoration="none" x="469" y="210">do()</text></g></g><g transform="translate(-102,-38) scale(1,1)"><g><path fill="none" stroke="none"/><text fill="#000000" stroke="none" font-family="Arial" font-size="13px" font-style="normal" font-weight="normal" text-decoration="none" x="469" y="225">{ doA() </text></g></g><g transform="translate(-102,-38) scale(1,1)"><g><path fill="none" stroke="none"/><text fill="#000000" stroke="none" font-family="Arial" font-size="13px" font-style="normal" font-weight="normal" text-decoration="none" x="469" y="240">classA-&gt;do() }</text></g></g><g transform="translate(-102,-38) scale(1,1)"><path fill="none" stroke="#000000" d="M 401 224 L 463 224" stroke-miterlimit="10" stroke-dasharray="3"/></g></g></svg>