<svg version="1.1" xmlns="http://www.w3.org/2000/svg" xmlns:xlink="http://www.w3.org/1999/xlink" width="612" height="468"><defs/><g><g transform="translate(-134,-38) scale(1,1)"><rect fill="#C0C0C0" stroke="none" x="295" y="55" width="192" height="64" opacity="0.2"/></g><g transform="translate(-134,-38) scale(1,1)"><rect fill="#ffffff" stroke="none" x="288" y="48" width="192" height="64"/></g><g transform="translate(-134,-38) scale(1,1)"><path fill="none" stroke="#000000" d="M 288 48 L 480 48 L 480 112 L 288 112 L 288 48 Z Z" stroke-miterlimit="10"/></g><g transform="translate(-134,-38) scale(1,1)"><path fill="none" stroke="#000000" d="M 288 73 L 480 73" stroke-miterlimit="10"/></g><g transform="translate(-134,-38) scale(1,1)"><g><path fill="none" stroke="none"/><text fill="#000000" stroke="none" font-family="Arial" font-size="13px" font-style="italic" font-weight="bold" text-decoration="none" x="370.635009765625" y="67.5">Host</text></g></g><g transform="translate(-134,-38) scale(1,1)"><g><path fill="none" stroke="none"/><text fill="#000000" stroke="none" font-family="Arial" font-size="13px" font-style="italic" font-weight="normal" text-decoration="none" x="293" y="90.5">+allowVisitorDo(Visitor *visitor)</text></g></g><g transform="translate(-134,-38) scale(1,1)"><rect fill="#C0C0C0" stroke="none" x="151" y="183" width="192" height="64" opacity="0.2"/></g><g transform="translate(-134,-38) scale(1,1)"><rect fill="#ffffff" stroke="none" x="144" y="176" width="192" height="64"/></g><g transform="translate(-134,-38) scale(1,1)"><path fill="none" stroke="#000000" d="M 144 176 L 336 176 L 336 240 L 144 240 L 144 176 Z Z" stroke-miterlimit="10"/></g><g transform="translate(-134,-38) scale(1,1)"><path fill="none" stroke="#000000" d="M 144 201 L 336 201" stroke-miterlimit="10"/></g><g transform="translate(-134,-38) scale(1,1)"><g><path fill="none" stroke="none"/><text fill="#000000" stroke="none" font-family="Arial" font-size="13px" font-style="normal" font-weight="bold" text-decoration="none" x="220.49365234375" y="195.5">Host A</text></g></g><g transform="translate(-134,-38) scale(1,1)"><g><path fill="none" stroke="none"/><text fill="#000000" stroke="none" font-family="Arial" font-size="13px" font-style="normal" font-weight="normal" text-decoration="none" x="149" y="218.5">+allowVisitorDo(Visitor *visitor)</text></g></g><g transform="translate(-134,-38) scale(1,1)"><rect fill="#C0C0C0" stroke="none" x="439" y="183" width="192" height="64" opacity="0.2"/></g><g transform="translate(-134,-38) scale(1,1)"><rect fill="#ffffff" stroke="none" x="432" y="176" width="192" height="64"/></g><g transform="translate(-134,-38) scale(1,1)"><path fill="none" stroke="#000000" d="M 432 176 L 624 176 L 624 240 L 432 240 L 432 176 Z Z" stroke-miterlimit="10"/></g><g transform="translate(-134,-38) scale(1,1)"><path fill="none" stroke="#000000" d="M 432 201 L 624 201" stroke-miterlimit="10"/></g><g transform="translate(-134,-38) scale(1,1)"><g><path fill="none" stroke="none"/><text fill="#000000" stroke="none" font-family="Arial" font-size="13px" font-style="normal" font-weight="bold" text-decoration="none" x="508.49365234375" y="195.5">Host B</text></g></g><g transform="translate(-134,-38) scale(1,1)"><g><path fill="none" stroke="none"/><text fill="#000000" stroke="none" font-family="Arial" font-size="13px" font-style="normal" font-weight="normal" text-decoration="none" x="437" y="218.5">+allowVisitorDo(Visitor *visitor)</text></g></g><g transform="translate(-134,-38) scale(1,1)"><path fill="none" stroke="#000000" d="M 277 175 L 347 113" stroke-miterlimit="10"/></g><g transform="translate(-134,-38) scale(1,1)"><path fill="#FFFFFF" stroke="none" d="M 337.36680072115695 132.77881370694658 L 347 113 L 326.20256616940134 120.17403276141609"/></g><g transform="translate(-134,-38) scale(1,1)"><path fill="none" stroke="#000000" d="M 337.36680072115695 132.77881370694658 L 347 113 L 326.20256616940134 120.17403276141609 L 337.36680072115695 132.77881370694658" stroke-miterlimit="10"/></g><g transform="translate(-134,-38) scale(1,1)"><path fill="none" stroke="#000000" d="M 491 175 L 421 113" stroke-miterlimit="10"/></g><g transform="translate(-134,-38) scale(1,1)"><path fill="#FFFFFF" stroke="none" d="M 441.79743383059866 120.17403276141607 L 421 113 L 430.63319927884305 132.77881370694658"/></g><g transform="translate(-134,-38) scale(1,1)"><path fill="none" stroke="#000000" d="M 441.79743383059866 120.17403276141607 L 421 113 L 430.63319927884305 132.77881370694658 L 441.79743383059866 120.17403276141607" stroke-miterlimit="10"/></g><g transform="translate(-134,-38) scale(1,1)"><rect fill="#C0C0C0" stroke="none" x="327" y="311" width="128" height="64" opacity="0.2"/></g><g transform="translate(-134,-38) scale(1,1)"><rect fill="#ffffff" stroke="none" x="320" y="304" width="128" height="64"/></g><g transform="translate(-134,-38) scale(1,1)"><path fill="none" stroke="#000000" d="M 320 304 L 448 304 L 448 368 L 320 368 L 320 304 Z Z" stroke-miterlimit="10"/></g><g transform="translate(-134,-38) scale(1,1)"><path fill="none" stroke="#000000" d="M 320 329 L 448 329" stroke-miterlimit="10"/></g><g transform="translate(-134,-38) scale(1,1)"><g><path fill="none" stroke="none"/><text fill="#000000" stroke="none" font-family="Arial" font-size="13px" font-style="italic" font-weight="bold" text-decoration="none" x="366.058349609375" y="323.5">Visitor</text></g></g><g transform="translate(-134,-38) scale(1,1)"><g><path fill="none" stroke="none"/><text fill="#000000" stroke="none" font-family="Arial" font-size="13px" font-style="italic" font-weight="normal" text-decoration="none" x="325" y="346.5">+do(HostA *hostA)</text></g></g><g transform="translate(-134,-38) scale(1,1)"><g><path fill="none" stroke="none"/><text fill="#000000" stroke="none" font-family="Arial" font-size="13px" font-style="italic" font-weight="normal" text-decoration="none" x="325" y="361.5">+do(HostB *hostB)</text></g></g><g transform="translate(-134,-38) scale(1,1)"><rect fill="#C0C0C0" stroke="none" x="247" y="439" width="128" height="64" opacity="0.2"/></g><g transform="translate(-134,-38) scale(1,1)"><rect fill="#ffffff" stroke="none" x="240" y="432" width="128" height="64"/></g><g transform="translate(-134,-38) scale(1,1)"><path fill="none" stroke="#000000" d="M 240 432 L 368 432 L 368 496 L 240 496 L 240 432 Z Z" stroke-miterlimit="10"/></g><g transform="translate(-134,-38) scale(1,1)"><path fill="none" stroke="#000000" d="M 240 457 L 368 457" stroke-miterlimit="10"/></g><g transform="translate(-134,-38) scale(1,1)"><g><path fill="none" stroke="none"/><text fill="#000000" stroke="none" font-family="Arial" font-size="13px" font-style="normal" font-weight="bold" text-decoration="none" x="269.802001953125" y="451.5">Do A Visitor</text></g></g><g transform="translate(-134,-38) scale(1,1)"><g><path fill="none" stroke="none"/><text fill="#000000" stroke="none" font-family="Arial" font-size="13px" font-style="normal" font-weight="normal" text-decoration="none" x="245" y="474.5">+do(HostA *hostA)</text></g></g><g transform="translate(-134,-38) scale(1,1)"><g><path fill="none" stroke="none"/><text fill="#000000" stroke="none" font-family="Arial" font-size="13px" font-style="normal" font-weight="normal" text-decoration="none" x="245" y="489.5">+do(HostB *hostB)</text></g></g><g transform="translate(-134,-38) scale(1,1)"><rect fill="#C0C0C0" stroke="none" x="407" y="439" width="128" height="64" opacity="0.2"/></g><g transform="translate(-134,-38) scale(1,1)"><rect fill="#ffffff" stroke="none" x="400" y="432" width="128" height="64"/></g><g transform="translate(-134,-38) scale(1,1)"><path fill="none" stroke="#000000" d="M 400 432 L 528 432 L 528 496 L 400 496 L 400 432 Z Z" stroke-miterlimit="10"/></g><g transform="translate(-134,-38) scale(1,1)"><path fill="none" stroke="#000000" d="M 400 457 L 528 457" stroke-miterlimit="10"/></g><g transform="translate(-134,-38) scale(1,1)"><g><path fill="none" stroke="none"/><text fill="#000000" stroke="none" font-family="Arial" font-size="13px" font-style="normal" font-weight="bold" text-decoration="none" x="429.802001953125" y="451.5">Do B Visitor</text></g></g><g transform="translate(-134,-38) scale(1,1)"><g><path fill="none" stroke="none"/><text fill="#000000" stroke="none" font-family="Arial" font-size="13px" font-style="normal" font-weight="normal" text-decoration="none" x="405" y="474.5">+do(HostA *hostA)</text></g></g><g transform="translate(-134,-38) scale(1,1)"><g><path fill="none" stroke="none"/><text fill="#000000" stroke="none" font-family="Arial" font-size="13px" font-style="normal" font-weight="normal" text-decoration="none" x="405" y="489.5">+do(HostB *hostB)</text></g></g><g transform="translate(-134,-38) scale(1,1)"><path fill="none" stroke="#000000" d="M 325 431 L 363 369" stroke-miterlimit="10"/></g><g transform="translate(-134,-38) scale(1,1)"><path fill="#FFFFFF" stroke="none" d="M 359.55682364631804 390.72888714585827 L 363 369 L 345.20066320301675 381.92995009996395"/></g><g transform="translate(-134,-38) scale(1,1)"><path fill="none" stroke="#000000" d="M 359.55682364631804 390.72888714585827 L 363 369 L 345.20066320301675 381.92995009996395 L 359.55682364631804 390.72888714585827" stroke-miterlimit="10"/></g><g transform="translate(-134,-38) scale(1,1)"><path fill="none" stroke="#000000" d="M 443 431 L 405 369" stroke-miterlimit="10"/></g><g transform="translate(-134,-38) scale(1,1)"><path fill="#FFFFFF" stroke="none" d="M 422.79933679698325 381.92995009996395 L 405 369 L 408.44317635368196 390.72888714585827"/></g><g transform="translate(-134,-38) scale(1,1)"><path fill="none" stroke="#000000" d="M 422.79933679698325 381.92995009996395 L 405 369 L 408.44317635368196 390.72888714585827 L 422.79933679698325 381.92995009996395" stroke-miterlimit="10"/></g><g transform="translate(-134,-38) scale(1,1)"><path fill="none" stroke="#000000" d="M 277 241 L 347 303" stroke-miterlimit="10" stroke-dasharray="3"/></g><g transform="translate(-134,-38) scale(1,1)"><path fill="none" stroke="#000000" d="M 336.6012830847007 299.41298361929194 L 347 303 L 342.18340036057845 293.1105931465267" stroke-miterlimit="10"/></g><g transform="translate(-134,-38) scale(1,1)"><path fill="none" stroke="#000000" d="M 491 241 L 421 303" stroke-miterlimit="10" stroke-dasharray="3"/></g><g transform="translate(-134,-38) scale(1,1)"><path fill="none" stroke="#000000" d="M 425.81659963942155 293.1105931465267 L 421 303 L 431.3987169152993 299.41298361929194" stroke-miterlimit="10"/></g><g transform="translate(-134,-38) scale(1,1)"><path fill="none" stroke="#000000" d="M 319 336 L 240 336 L 240 241" stroke-miterlimit="10" stroke-dasharray="3"/></g><g transform="translate(-134,-38) scale(1,1)"><path fill="none" stroke="#000000" d="M 244.209517756016 251.16267485762415 L 240 241 L 235.790482243984 251.16267485762415" stroke-miterlimit="10"/></g><g transform="translate(-134,-38) scale(1,1)"><path fill="none" stroke="#000000" d="M 449 336 L 528 336 L 528 241" stroke-miterlimit="10" stroke-dasharray="3"/></g><g transform="translate(-134,-38) scale(1,1)"><path fill="none" stroke="#000000" d="M 532.209517756016 251.16267485762415 L 528 241 L 523.790482243984 251.16267485762415" stroke-miterlimit="10"/></g><g transform="translate(-134,-38) scale(1,1)"><path fill="#ffffff" stroke="none" d="M 544 80 L 725 80 L 735 90 L 735 143 L 544 143 L 544 80"/></g><g transform="translate(-134,-38) scale(1,1)"><path fill="none" stroke="#000000" d="M 544 80 L 725 80 L 735 90 L 735 143 L 544 143 L 544 80 L 544 80" stroke-miterlimit="10"/></g><g transform="translate(-134,-38) scale(1,1)"><path fill="none" stroke="#000000" d="M 725 80 L 725 90 L 735 90 L 725 80" stroke-miterlimit="10"/></g><g transform="translate(-134,-38) scale(1,1)"><g><path fill="none" stroke="none"/><text fill="#000000" stroke="none" font-family="Arial" font-size="13px" font-style="normal" font-weight="normal" text-decoration="none" x="549" y="98">+allowVisitorDo(Visitor *visitor) </text></g></g><g transform="translate(-134,-38) scale(1,1)"><g><path fill="none" stroke="none"/><text fill="#000000" stroke="none" font-family="Arial" font-size="13px" font-style="normal" font-weight="normal" text-decoration="none" x="549" y="113">{ visitor-&gt;do(this) }</text></g></g><g transform="translate(-134,-38) scale(1,1)"><path fill="none" stroke="#000000" d="M 543 135 L 337 185" stroke-miterlimit="10" stroke-dasharray="3"/></g><g transform="translate(-134,-38) scale(1,1)"><path fill="none" stroke="#000000" d="M 602 145 L 567 175" stroke-miterlimit="10" stroke-dasharray="3"/></g></g></svg>