<svg version="1.1" xmlns="http://www.w3.org/2000/svg" xmlns:xlink="http://www.w3.org/1999/xlink" width="661" height="468"><defs/><g><g transform="translate(-342,-150) scale(1,1)"><rect fill="#C0C0C0" stroke="none" x="615" y="551" width="128" height="64" opacity="0.2"/></g><g transform="translate(-342,-150) scale(1,1)"><rect fill="#ffffff" stroke="none" x="608" y="544" width="128" height="64"/></g><g transform="translate(-342,-150) scale(1,1)"><path fill="none" stroke="#000000" d="M 608 544 L 736 544 L 736 608 L 608 608 L 608 544 Z Z" stroke-miterlimit="10"/></g><g transform="translate(-342,-150) scale(1,1)"><path fill="none" stroke="#000000" d="M 608 569 L 736 569" stroke-miterlimit="10"/></g><g transform="translate(-342,-150) scale(1,1)"><g><path fill="none" stroke="none"/><text fill="#000000" stroke="none" font-family="Arial" font-size="13px" font-style="italic" font-weight="bold" text-decoration="none" x="624.681396484375" y="563.5">Abstract Factory</text></g></g><g transform="translate(-342,-150) scale(1,1)"><g><path fill="none" stroke="none"/><text fill="#000000" stroke="none" font-family="Arial" font-size="13px" font-style="italic" font-weight="normal" text-decoration="none" x="613" y="586.5">+createProductA()</text></g></g><g transform="translate(-342,-150) scale(1,1)"><g><path fill="none" stroke="none"/><text fill="#000000" stroke="none" font-family="Arial" font-size="13px" font-style="italic" font-weight="normal" text-decoration="none" x="613" y="601.5">+createProductB()</text></g></g><g transform="translate(-342,-150) scale(1,1)"><rect fill="#C0C0C0" stroke="none" x="471" y="423" width="128" height="64" opacity="0.2"/></g><g transform="translate(-342,-150) scale(1,1)"><rect fill="#ffffff" stroke="none" x="464" y="416" width="128" height="64"/></g><g transform="translate(-342,-150) scale(1,1)"><path fill="none" stroke="#000000" d="M 464 416 L 592 416 L 592 480 L 464 480 L 464 416 Z Z" stroke-miterlimit="10"/></g><g transform="translate(-342,-150) scale(1,1)"><path fill="none" stroke="#000000" d="M 464 441 L 592 441" stroke-miterlimit="10"/></g><g transform="translate(-342,-150) scale(1,1)"><g><path fill="none" stroke="none"/><text fill="#000000" stroke="none" font-family="Arial" font-size="13px" font-style="normal" font-weight="bold" text-decoration="none" x="500.187744140625" y="435.5">Factory A</text></g></g><g transform="translate(-342,-150) scale(1,1)"><g><path fill="none" stroke="none"/><text fill="#000000" stroke="none" font-family="Arial" font-size="13px" font-style="normal" font-weight="normal" text-decoration="none" x="469" y="458.5">+createProductA()</text></g></g><g transform="translate(-342,-150) scale(1,1)"><g><path fill="none" stroke="none"/><text fill="#000000" stroke="none" font-family="Arial" font-size="13px" font-style="normal" font-weight="normal" text-decoration="none" x="469" y="473.5">+createProductB()</text></g></g><g transform="translate(-342,-150) scale(1,1)"><rect fill="#C0C0C0" stroke="none" x="759" y="423" width="128" height="64" opacity="0.2"/></g><g transform="translate(-342,-150) scale(1,1)"><rect fill="#ffffff" stroke="none" x="752" y="416" width="128" height="64"/></g><g transform="translate(-342,-150) scale(1,1)"><path fill="none" stroke="#000000" d="M 752 416 L 880 416 L 880 480 L 752 480 L 752 416 Z Z" stroke-miterlimit="10"/></g><g transform="translate(-342,-150) scale(1,1)"><path fill="none" stroke="#000000" d="M 752 441 L 880 441" stroke-miterlimit="10"/></g><g transform="translate(-342,-150) scale(1,1)"><g><path fill="none" stroke="none"/><text fill="#000000" stroke="none" font-family="Arial" font-size="13px" font-style="normal" font-weight="bold" text-decoration="none" x="788.187744140625" y="435.5">Factory B</text></g></g><g transform="translate(-342,-150) scale(1,1)"><g><path fill="none" stroke="none"/><text fill="#000000" stroke="none" font-family="Arial" font-size="13px" font-style="normal" font-weight="normal" text-decoration="none" x="757" y="458.5">+createProductA()</text></g></g><g transform="translate(-342,-150) scale(1,1)"><g><path fill="none" stroke="none"/><text fill="#000000" stroke="none" font-family="Arial" font-size="13px" font-style="normal" font-weight="normal" text-decoration="none" x="757" y="473.5">+createProductB()</text></g></g><g transform="translate(-342,-150) scale(1,1)"><path fill="none" stroke="#000000" d="M 565 481 L 635 543" stroke-miterlimit="10"/></g><g transform="translate(-342,-150) scale(1,1)"><path fill="#FFFFFF" stroke="none" d="M 614.2025661694014 535.8259672385839 L 635 543 L 625.3668007211569 523.2211862930534"/></g><g transform="translate(-342,-150) scale(1,1)"><path fill="none" stroke="#000000" d="M 614.2025661694014 535.8259672385839 L 635 543 L 625.3668007211569 523.2211862930534 L 614.2025661694014 535.8259672385839" stroke-miterlimit="10"/></g><g transform="translate(-342,-150) scale(1,1)"><path fill="none" stroke="#000000" d="M 779 481 L 709 543" stroke-miterlimit="10"/></g><g transform="translate(-342,-150) scale(1,1)"><path fill="#FFFFFF" stroke="none" d="M 718.6331992788431 523.2211862930534 L 709 543 L 729.7974338305986 535.8259672385839"/></g><g transform="translate(-342,-150) scale(1,1)"><path fill="none" stroke="#000000" d="M 718.6331992788431 523.2211862930534 L 709 543 L 729.7974338305986 535.8259672385839 L 718.6331992788431 523.2211862930534" stroke-miterlimit="10"/></g><g transform="translate(-342,-150) scale(1,1)"><rect fill="#C0C0C0" stroke="none" x="439" y="167" width="160" height="64" opacity="0.2"/></g><g transform="translate(-342,-150) scale(1,1)"><rect fill="#ffffff" stroke="none" x="432" y="160" width="160" height="64"/></g><g transform="translate(-342,-150) scale(1,1)"><path fill="none" stroke="#000000" d="M 432 160 L 592 160 L 592 224 L 432 224 L 432 160 Z Z" stroke-miterlimit="10"/></g><g transform="translate(-342,-150) scale(1,1)"><path fill="none" stroke="#000000" d="M 432 185 L 592 185" stroke-miterlimit="10"/></g><g transform="translate(-342,-150) scale(1,1)"><g><path fill="none" stroke="none"/><text fill="#000000" stroke="none" font-family="Arial" font-size="13px" font-style="italic" font-weight="bold" text-decoration="none" x="457.81005859375" y="179.5">Abstract Product A</text></g></g><g transform="translate(-342,-150) scale(1,1)"><rect fill="#C0C0C0" stroke="none" x="375" y="295" width="128" height="64" opacity="0.2"/></g><g transform="translate(-342,-150) scale(1,1)"><rect fill="#ffffff" stroke="none" x="368" y="288" width="128" height="64"/></g><g transform="translate(-342,-150) scale(1,1)"><path fill="none" stroke="#000000" d="M 368 288 L 496 288 L 496 352 L 368 352 L 368 288 Z Z" stroke-miterlimit="10"/></g><g transform="translate(-342,-150) scale(1,1)"><path fill="none" stroke="#000000" d="M 368 313 L 496 313" stroke-miterlimit="10"/></g><g transform="translate(-342,-150) scale(1,1)"><g><path fill="none" stroke="none"/><text fill="#000000" stroke="none" font-family="Arial" font-size="13px" font-style="normal" font-weight="bold" text-decoration="none" x="399.8427734375" y="307.5">Product A1</text></g></g><g transform="translate(-342,-150) scale(1,1)"><rect fill="#C0C0C0" stroke="none" x="535" y="295" width="128" height="64" opacity="0.2"/></g><g transform="translate(-342,-150) scale(1,1)"><rect fill="#ffffff" stroke="none" x="528" y="288" width="128" height="64"/></g><g transform="translate(-342,-150) scale(1,1)"><path fill="none" stroke="#000000" d="M 528 288 L 656 288 L 656 352 L 528 352 L 528 288 Z Z" stroke-miterlimit="10"/></g><g transform="translate(-342,-150) scale(1,1)"><path fill="none" stroke="#000000" d="M 528 313 L 656 313" stroke-miterlimit="10"/></g><g transform="translate(-342,-150) scale(1,1)"><g><path fill="none" stroke="none"/><text fill="#000000" stroke="none" font-family="Arial" font-size="13px" font-style="normal" font-weight="bold" text-decoration="none" x="559.8427734375" y="307.5">Product A2</text></g></g><g transform="translate(-342,-150) scale(1,1)"><path fill="none" stroke="#000000" d="M 453 287 L 491 225" stroke-miterlimit="10"/></g><g transform="translate(-342,-150) scale(1,1)"><path fill="#FFFFFF" stroke="none" d="M 487.55682364631804 246.7288871458583 L 491 225 L 473.20066320301675 237.92995009996392"/></g><g transform="translate(-342,-150) scale(1,1)"><path fill="none" stroke="#000000" d="M 487.55682364631804 246.7288871458583 L 491 225 L 473.20066320301675 237.92995009996392 L 487.55682364631804 246.7288871458583" stroke-miterlimit="10"/></g><g transform="translate(-342,-150) scale(1,1)"><path fill="none" stroke="#000000" d="M 571 287 L 533 225" stroke-miterlimit="10"/></g><g transform="translate(-342,-150) scale(1,1)"><path fill="#FFFFFF" stroke="none" d="M 550.7993367969833 237.92995009996392 L 533 225 L 536.4431763536819 246.7288871458583"/></g><g transform="translate(-342,-150) scale(1,1)"><path fill="none" stroke="#000000" d="M 550.7993367969833 237.92995009996392 L 533 225 L 536.4431763536819 246.7288871458583 L 550.7993367969833 237.92995009996392" stroke-miterlimit="10"/></g><g transform="translate(-342,-150) scale(1,1)"><path fill="none" stroke="#000000" d="M 607 576 L 352 576 L 352 192 L 431 192" stroke-miterlimit="10" stroke-dasharray="3"/></g><g transform="translate(-342,-150) scale(1,1)"><path fill="none" stroke="#000000" d="M 420.83732514237585 196.209517756016 L 431 192 L 420.83732514237585 187.790482243984" stroke-miterlimit="10"/></g><g transform="translate(-342,-150) scale(1,1)"><rect fill="#C0C0C0" stroke="none" x="759" y="167" width="160" height="64" opacity="0.2"/></g><g transform="translate(-342,-150) scale(1,1)"><rect fill="#ffffff" stroke="none" x="752" y="160" width="160" height="64"/></g><g transform="translate(-342,-150) scale(1,1)"><path fill="none" stroke="#000000" d="M 752 160 L 912 160 L 912 224 L 752 224 L 752 160 Z Z" stroke-miterlimit="10"/></g><g transform="translate(-342,-150) scale(1,1)"><path fill="none" stroke="#000000" d="M 752 185 L 912 185" stroke-miterlimit="10"/></g><g transform="translate(-342,-150) scale(1,1)"><g><path fill="none" stroke="none"/><text fill="#000000" stroke="none" font-family="Arial" font-size="13px" font-style="italic" font-weight="bold" text-decoration="none" x="777.81005859375" y="179.5">Abstract Product B</text></g></g><g transform="translate(-342,-150) scale(1,1)"><rect fill="#C0C0C0" stroke="none" x="695" y="295" width="128" height="64" opacity="0.2"/></g><g transform="translate(-342,-150) scale(1,1)"><rect fill="#ffffff" stroke="none" x="688" y="288" width="128" height="64"/></g><g transform="translate(-342,-150) scale(1,1)"><path fill="none" stroke="#000000" d="M 688 288 L 816 288 L 816 352 L 688 352 L 688 288 Z Z" stroke-miterlimit="10"/></g><g transform="translate(-342,-150) scale(1,1)"><path fill="none" stroke="#000000" d="M 688 313 L 816 313" stroke-miterlimit="10"/></g><g transform="translate(-342,-150) scale(1,1)"><g><path fill="none" stroke="none"/><text fill="#000000" stroke="none" font-family="Arial" font-size="13px" font-style="normal" font-weight="bold" text-decoration="none" x="719.8427734375" y="307.5">Product B1</text></g></g><g transform="translate(-342,-150) scale(1,1)"><rect fill="#C0C0C0" stroke="none" x="855" y="295" width="128" height="64" opacity="0.2"/></g><g transform="translate(-342,-150) scale(1,1)"><rect fill="#ffffff" stroke="none" x="848" y="288" width="128" height="64"/></g><g transform="translate(-342,-150) scale(1,1)"><path fill="none" stroke="#000000" d="M 848 288 L 976 288 L 976 352 L 848 352 L 848 288 Z Z" stroke-miterlimit="10"/></g><g transform="translate(-342,-150) scale(1,1)"><path fill="none" stroke="#000000" d="M 848 313 L 976 313" stroke-miterlimit="10"/></g><g transform="translate(-342,-150) scale(1,1)"><g><path fill="none" stroke="none"/><text fill="#000000" stroke="none" font-family="Arial" font-size="13px" font-style="normal" font-weight="bold" text-decoration="none" x="879.8427734375" y="307.5">Product B2</text></g></g><g transform="translate(-342,-150) scale(1,1)"><path fill="none" stroke="#000000" d="M 503 415 L 457 353" stroke-miterlimit="10" stroke-dasharray="3"/></g><g transform="translate(-342,-150) scale(1,1)"><path fill="none" stroke="#000000" d="M 466.43605396496196 358.65339593256346 L 457 353 L 459.6747431456188 363.6698523469149" stroke-miterlimit="10"/></g><g transform="translate(-342,-150) scale(1,1)"><path fill="none" stroke="#000000" d="M 586 415 L 694 353" stroke-miterlimit="10" stroke-dasharray="3"/></g><g transform="translate(-342,-150) scale(1,1)"><path fill="none" stroke="#000000" d="M 687.282170917094 361.7103830233155 L 694 353 L 683.0906065981064 354.40894840314354" stroke-miterlimit="10"/></g><g transform="translate(-342,-150) scale(1,1)"><path fill="none" stroke="#000000" d="M 758 415 L 650 353" stroke-miterlimit="10" stroke-dasharray="3"/></g><g transform="translate(-342,-150) scale(1,1)"><path fill="none" stroke="#000000" d="M 660.9093934018936 354.40894840314354 L 650 353 L 656.717829082906 361.7103830233155" stroke-miterlimit="10"/></g><g transform="translate(-342,-150) scale(1,1)"><path fill="none" stroke="#000000" d="M 737 576 L 992 576 L 992 192 L 913 192" stroke-miterlimit="10" stroke-dasharray="3"/></g><g transform="translate(-342,-150) scale(1,1)"><path fill="none" stroke="#000000" d="M 923.1626748576241 187.790482243984 L 913 192 L 923.1626748576241 196.209517756016" stroke-miterlimit="10"/></g><g transform="translate(-342,-150) scale(1,1)"><path fill="none" stroke="#000000" d="M 841 415 L 887 353" stroke-miterlimit="10" stroke-dasharray="3"/></g><g transform="translate(-342,-150) scale(1,1)"><path fill="none" stroke="#000000" d="M 884.3252568543812 363.6698523469149 L 887 353 L 877.563946035038 358.65339593256346" stroke-miterlimit="10"/></g><g transform="translate(-342,-150) scale(1,1)"><path fill="none" stroke="#000000" d="M 773 287 L 811 225" stroke-miterlimit="10"/></g><g transform="translate(-342,-150) scale(1,1)"><path fill="#FFFFFF" stroke="none" d="M 807.5568236463181 246.7288871458583 L 811 225 L 793.2006632030167 237.92995009996392"/></g><g transform="translate(-342,-150) scale(1,1)"><path fill="none" stroke="#000000" d="M 807.5568236463181 246.7288871458583 L 811 225 L 793.2006632030167 237.92995009996392 L 807.5568236463181 246.7288871458583" stroke-miterlimit="10"/></g><g transform="translate(-342,-150) scale(1,1)"><path fill="none" stroke="#000000" d="M 891 287 L 853 225" stroke-miterlimit="10"/></g><g transform="translate(-342,-150) scale(1,1)"><path fill="#FFFFFF" stroke="none" d="M 870.7993367969833 237.92995009996392 L 853 225 L 856.4431763536819 246.7288871458583"/></g><g transform="translate(-342,-150) scale(1,1)"><path fill="none" stroke="#000000" d="M 870.7993367969833 237.92995009996392 L 853 225 L 856.4431763536819 246.7288871458583 L 870.7993367969833 237.92995009996392" stroke-miterlimit="10"/></g></g></svg>