<svg version="1.1" xmlns="http://www.w3.org/2000/svg" xmlns:xlink="http://www.w3.org/1999/xlink" width="580" height="500"><defs/><g><g transform="translate(-70,-38) scale(1,1)"><rect fill="#C0C0C0" stroke="none" x="375" y="55" width="128" height="64" opacity="0.2"/></g><g transform="translate(-70,-38) scale(1,1)"><rect fill="#ffffff" stroke="none" x="368" y="48" width="128" height="64"/></g><g transform="translate(-70,-38) scale(1,1)"><path fill="none" stroke="#000000" d="M 368 48 L 496 48 L 496 112 L 368 112 L 368 48 Z Z" stroke-miterlimit="10"/></g><g transform="translate(-70,-38) scale(1,1)"><path fill="none" stroke="#000000" d="M 368 73 L 496 73" stroke-miterlimit="10"/></g><g transform="translate(-70,-38) scale(1,1)"><g><path fill="none" stroke="none"/><text fill="#000000" stroke="none" font-family="Arial" font-size="13px" font-style="italic" font-weight="bold" text-decoration="none" x="386.119140625" y="67.5">Abstract Builder</text></g></g><g transform="translate(-70,-38) scale(1,1)"><g><path fill="none" stroke="none"/><text fill="#000000" stroke="none" font-family="Arial" font-size="13px" font-style="italic" font-weight="normal" text-decoration="none" x="373" y="90.5">+buildPartA()</text></g></g><g transform="translate(-70,-38) scale(1,1)"><g><path fill="none" stroke="none"/><text fill="#000000" stroke="none" font-family="Arial" font-size="13px" font-style="italic" font-weight="normal" text-decoration="none" x="373" y="105.5">+buildPartB()</text></g></g><g transform="translate(-70,-38) scale(1,1)"><rect fill="#C0C0C0" stroke="none" x="263" y="183" width="160" height="96" opacity="0.2"/></g><g transform="translate(-70,-38) scale(1,1)"><rect fill="#ffffff" stroke="none" x="256" y="176" width="160" height="96"/></g><g transform="translate(-70,-38) scale(1,1)"><path fill="none" stroke="#000000" d="M 256 176 L 416 176 L 416 272 L 256 272 L 256 176 Z Z" stroke-miterlimit="10"/></g><g transform="translate(-70,-38) scale(1,1)"><path fill="none" stroke="#000000" d="M 256 201 L 416 201" stroke-miterlimit="10"/></g><g transform="translate(-70,-38) scale(1,1)"><g><path fill="none" stroke="none"/><text fill="#000000" stroke="none" font-family="Arial" font-size="13px" font-style="normal" font-weight="bold" text-decoration="none" x="309.62548828125" y="195.5">Builder A</text></g></g><g transform="translate(-70,-38) scale(1,1)"><g><path fill="none" stroke="none"/><text fill="#000000" stroke="none" font-family="Arial" font-size="13px" font-style="normal" font-weight="normal" text-decoration="none" x="261" y="218.5">+buildPartA()</text></g></g><g transform="translate(-70,-38) scale(1,1)"><g><path fill="none" stroke="none"/><text fill="#000000" stroke="none" font-family="Arial" font-size="13px" font-style="normal" font-weight="normal" text-decoration="none" x="261" y="233.5">+buildPartB()</text></g></g><g transform="translate(-70,-38) scale(1,1)"><g><path fill="none" stroke="none"/><text fill="#000000" stroke="none" font-family="Arial" font-size="13px" font-style="normal" font-weight="normal" text-decoration="none" x="261" y="248.5">+getBuildedProductA()</text></g></g><g transform="translate(-70,-38) scale(1,1)"><rect fill="#C0C0C0" stroke="none" x="455" y="183" width="160" height="96" opacity="0.2"/></g><g transform="translate(-70,-38) scale(1,1)"><rect fill="#ffffff" stroke="none" x="448" y="176" width="160" height="96"/></g><g transform="translate(-70,-38) scale(1,1)"><path fill="none" stroke="#000000" d="M 448 176 L 608 176 L 608 272 L 448 272 L 448 176 Z Z" stroke-miterlimit="10"/></g><g transform="translate(-70,-38) scale(1,1)"><path fill="none" stroke="#000000" d="M 448 201 L 608 201" stroke-miterlimit="10"/></g><g transform="translate(-70,-38) scale(1,1)"><g><path fill="none" stroke="none"/><text fill="#000000" stroke="none" font-family="Arial" font-size="13px" font-style="normal" font-weight="bold" text-decoration="none" x="501.62548828125" y="195.5">Builder B</text></g></g><g transform="translate(-70,-38) scale(1,1)"><g><path fill="none" stroke="none"/><text fill="#000000" stroke="none" font-family="Arial" font-size="13px" font-style="normal" font-weight="normal" text-decoration="none" x="453" y="218.5">+buildPartA()</text></g></g><g transform="translate(-70,-38) scale(1,1)"><g><path fill="none" stroke="none"/><text fill="#000000" stroke="none" font-family="Arial" font-size="13px" font-style="normal" font-weight="normal" text-decoration="none" x="453" y="233.5">+buildPartB()</text></g></g><g transform="translate(-70,-38) scale(1,1)"><g><path fill="none" stroke="none"/><text fill="#000000" stroke="none" font-family="Arial" font-size="13px" font-style="normal" font-weight="normal" text-decoration="none" x="453" y="248.5">+getBuildedProductB()</text></g></g><g transform="translate(-70,-38) scale(1,1)"><rect fill="#C0C0C0" stroke="none" x="87" y="55" width="224" height="64" opacity="0.2"/></g><g transform="translate(-70,-38) scale(1,1)"><rect fill="#ffffff" stroke="none" x="80" y="48" width="224" height="64"/></g><g transform="translate(-70,-38) scale(1,1)"><path fill="none" stroke="#000000" d="M 80 48 L 304 48 L 304 112 L 80 112 L 80 48 Z Z" stroke-miterlimit="10"/></g><g transform="translate(-70,-38) scale(1,1)"><path fill="none" stroke="#000000" d="M 80 73 L 304 73" stroke-miterlimit="10"/></g><g transform="translate(-70,-38) scale(1,1)"><g><path fill="none" stroke="none"/><text fill="#000000" stroke="none" font-family="Arial" font-size="13px" font-style="normal" font-weight="bold" text-decoration="none" x="169.246826171875" y="67.5">Director</text></g></g><g transform="translate(-70,-38) scale(1,1)"><g><path fill="none" stroke="none"/><text fill="#000000" stroke="none" font-family="Arial" font-size="13px" font-style="normal" font-weight="normal" text-decoration="none" x="85" y="90.5">+build(Abstract Builder &amp;builder)</text></g></g><g transform="translate(-70,-38) scale(1,1)"><path fill="none" stroke="#000000" d="M 369 175 L 410 113" stroke-miterlimit="10"/></g><g transform="translate(-70,-38) scale(1,1)"><path fill="#FFFFFF" stroke="none" d="M 405.8111435932198 134.59753416488505 L 410 113 L 391.7662683644507 125.30979409424738"/></g><g transform="translate(-70,-38) scale(1,1)"><path fill="none" stroke="#000000" d="M 405.8111435932198 134.59753416488505 L 410 113 L 391.7662683644507 125.30979409424738 L 405.8111435932198 134.59753416488505" stroke-miterlimit="10"/></g><g transform="translate(-70,-38) scale(1,1)"><path fill="none" stroke="#000000" d="M 495 175 L 454 113" stroke-miterlimit="10"/></g><g transform="translate(-70,-38) scale(1,1)"><path fill="#FFFFFF" stroke="none" d="M 472.2337316355493 125.30979409424738 L 454 113 L 458.1888564067802 134.59753416488505"/></g><g transform="translate(-70,-38) scale(1,1)"><path fill="none" stroke="#000000" d="M 472.2337316355493 125.30979409424738 L 454 113 L 458.1888564067802 134.59753416488505 L 472.2337316355493 125.30979409424738" stroke-miterlimit="10"/></g><g transform="translate(-70,-38) scale(1,1)"><path fill="none" stroke="#000000" d="M 367 80 L 305 80" stroke-miterlimit="10"/></g><g transform="translate(-70,-38) scale(1,1)"><path fill="#FFFFFF" stroke="none" d="M 315.16267485762415 75.79048224398402 L 305 80 L 315.16267485762415 84.20951775601598 L 327 80"/></g><g transform="translate(-70,-38) scale(1,1)"><path fill="none" stroke="#000000" d="M 315.16267485762415 75.79048224398402 L 305 80 L 315.16267485762415 84.20951775601598 L 327 80 L 315.16267485762415 75.79048224398402" stroke-miterlimit="10"/></g><g transform="translate(-70,-38) scale(1,1)"><rect fill="#C0C0C0" stroke="none" x="375" y="471" width="128" height="64" opacity="0.2"/></g><g transform="translate(-70,-38) scale(1,1)"><rect fill="#ffffff" stroke="none" x="368" y="464" width="128" height="64"/></g><g transform="translate(-70,-38) scale(1,1)"><path fill="none" stroke="#000000" d="M 368 464 L 496 464 L 496 528 L 368 528 L 368 464 Z Z" stroke-miterlimit="10"/></g><g transform="translate(-70,-38) scale(1,1)"><path fill="none" stroke="#000000" d="M 368 489 L 496 489" stroke-miterlimit="10"/></g><g transform="translate(-70,-38) scale(1,1)"><g><path fill="none" stroke="none"/><text fill="#000000" stroke="none" font-family="Arial" font-size="13px" font-style="normal" font-weight="bold" text-decoration="none" x="418.2763671875" y="483.5">User</text></g></g><g transform="translate(-70,-38) scale(1,1)"><path fill="none" stroke="#000000" d="M 367 496 L 192 496 L 192 113" stroke-miterlimit="10" stroke-dasharray="3"/></g><g transform="translate(-70,-38) scale(1,1)"><path fill="none" stroke="#000000" d="M 196.209517756016 123.16267485762415 L 192 113 L 187.790482243984 123.16267485762415" stroke-miterlimit="10"/></g><g transform="translate(-70,-38) scale(1,1)"><rect fill="#C0C0C0" stroke="none" x="231" y="343" width="128" height="64" opacity="0.2"/></g><g transform="translate(-70,-38) scale(1,1)"><rect fill="#ffffff" stroke="none" x="224" y="336" width="128" height="64"/></g><g transform="translate(-70,-38) scale(1,1)"><path fill="none" stroke="#000000" d="M 224 336 L 352 336 L 352 400 L 224 400 L 224 336 Z Z" stroke-miterlimit="10"/></g><g transform="translate(-70,-38) scale(1,1)"><path fill="none" stroke="#000000" d="M 224 361 L 352 361" stroke-miterlimit="10"/></g><g transform="translate(-70,-38) scale(1,1)"><g><path fill="none" stroke="none"/><text fill="#000000" stroke="none" font-family="Arial" font-size="13px" font-style="normal" font-weight="bold" text-decoration="none" x="259.457763671875" y="355.5">Product A</text></g></g><g transform="translate(-70,-38) scale(1,1)"><rect fill="#C0C0C0" stroke="none" x="519" y="343" width="128" height="64" opacity="0.2"/></g><g transform="translate(-70,-38) scale(1,1)"><rect fill="#ffffff" stroke="none" x="512" y="336" width="128" height="64"/></g><g transform="translate(-70,-38) scale(1,1)"><path fill="none" stroke="#000000" d="M 512 336 L 640 336 L 640 400 L 512 400 L 512 336 Z Z" stroke-miterlimit="10"/></g><g transform="translate(-70,-38) scale(1,1)"><path fill="none" stroke="#000000" d="M 512 361 L 640 361" stroke-miterlimit="10"/></g><g transform="translate(-70,-38) scale(1,1)"><g><path fill="none" stroke="none"/><text fill="#000000" stroke="none" font-family="Arial" font-size="13px" font-style="normal" font-weight="bold" text-decoration="none" x="547.457763671875" y="355.5">Product B</text></g></g><g transform="translate(-70,-38) scale(1,1)"><path fill="none" stroke="#000000" d="M 320 273 L 299 335" stroke-miterlimit="10" stroke-dasharray="3"/></g><g transform="translate(-70,-38) scale(1,1)"><path fill="none" stroke="#000000" d="M 298.27323566671316 324.02403473019973 L 299 335 L 306.2472794839522 326.72492053926453" stroke-miterlimit="10"/></g><g transform="translate(-70,-38) scale(1,1)"><path fill="none" stroke="#000000" d="M 544 273 L 565 335" stroke-miterlimit="10" stroke-dasharray="3"/></g><g transform="translate(-70,-38) scale(1,1)"><path fill="none" stroke="#000000" d="M 557.7527205160478 326.72492053926453 L 565 335 L 565.7267643332868 324.02403473019973" stroke-miterlimit="10"/></g><g transform="translate(-70,-38) scale(1,1)"><path fill="none" stroke="#000000" d="M 420 463 L 353 273" stroke-miterlimit="10" stroke-dasharray="3"/></g><g transform="translate(-70,-38) scale(1,1)"><path fill="none" stroke="#000000" d="M 360.34962408332206 281.18431584396967 L 353 273 L 352.40978379584556 283.9841542611324" stroke-miterlimit="10"/></g><g transform="translate(-70,-38) scale(1,1)"><path fill="none" stroke="#000000" d="M 444 463 L 511 273" stroke-miterlimit="10" stroke-dasharray="3"/></g><g transform="translate(-70,-38) scale(1,1)"><path fill="none" stroke="#000000" d="M 511.59021620415444 283.9841542611324 L 511 273 L 503.65037591667794 281.18431584396967" stroke-miterlimit="10"/></g><g transform="translate(-70,-38) scale(1,1)"><path fill="none" stroke="#000000" d="M 395 463 L 325 401" stroke-miterlimit="10" stroke-dasharray="3"/></g><g transform="translate(-70,-38) scale(1,1)"><path fill="none" stroke="#000000" d="M 335.3987169152993 404.58701638070806 L 325 401 L 329.81659963942155 410.8894068534733" stroke-miterlimit="10"/></g><g transform="translate(-70,-38) scale(1,1)"><path fill="none" stroke="#000000" d="M 469 463 L 539 401" stroke-miterlimit="10" stroke-dasharray="3"/></g><g transform="translate(-70,-38) scale(1,1)"><path fill="none" stroke="#000000" d="M 534.1834003605785 410.8894068534733 L 539 401 L 528.6012830847006 404.58701638070806" stroke-miterlimit="10"/></g></g></svg>