<svg version="1.1" xmlns="http://www.w3.org/2000/svg" xmlns:xlink="http://www.w3.org/1999/xlink" width="372" height="372"><defs/><g><g transform="translate(-262,-54) scale(1,1)"><rect fill="#C0C0C0" stroke="none" x="279" y="71" width="256" height="96" opacity="0.2"/></g><g transform="translate(-262,-54) scale(1,1)"><rect fill="#ffffff" stroke="none" x="272" y="64" width="256" height="96"/></g><g transform="translate(-262,-54) scale(1,1)"><path fill="none" stroke="#000000" d="M 272 64 L 528 64 L 528 160 L 272 160 L 272 64 Z Z" stroke-miterlimit="10"/></g><g transform="translate(-262,-54) scale(1,1)"><path fill="none" stroke="#000000" d="M 272 89 L 528 89" stroke-miterlimit="10"/></g><g transform="translate(-262,-54) scale(1,1)"><g><path fill="none" stroke="none"/><text fill="#000000" stroke="none" font-family="Arial" font-size="13px" font-style="italic" font-weight="bold" text-decoration="none" x="358.09912109375" y="83.5">Abstract Class</text></g></g><g transform="translate(-262,-54) scale(1,1)"><g><path fill="none" stroke="none"/><text fill="#000000" stroke="none" font-family="Arial" font-size="13px" font-style="italic" font-weight="normal" text-decoration="none" x="277" y="106.5">+do()</text></g></g><g transform="translate(-262,-54) scale(1,1)"><g><path fill="none" stroke="none"/><text fill="#000000" stroke="none" font-family="Arial" font-size="13px" font-style="normal" font-weight="normal" text-decoration="none" x="277" y="121.5">+add(AbstractClass *abstractClass)</text></g></g><g transform="translate(-262,-54) scale(1,1)"><g><path fill="none" stroke="none"/><text fill="#000000" stroke="none" font-family="Arial" font-size="13px" font-style="normal" font-weight="normal" text-decoration="none" x="277" y="136.5">+remove(AbstractClass *abstractClass)</text></g></g><g transform="translate(-262,-54) scale(1,1)"><g><path fill="none" stroke="none"/><text fill="#000000" stroke="none" font-family="Arial" font-size="13px" font-style="normal" font-weight="normal" text-decoration="none" x="277" y="151.5">+getChild()</text></g></g><g transform="translate(-262,-54) scale(1,1)"><rect fill="#C0C0C0" stroke="none" x="279" y="231" width="128" height="64" opacity="0.2"/></g><g transform="translate(-262,-54) scale(1,1)"><rect fill="#ffffff" stroke="none" x="272" y="224" width="128" height="64"/></g><g transform="translate(-262,-54) scale(1,1)"><path fill="none" stroke="#000000" d="M 272 224 L 400 224 L 400 288 L 272 288 L 272 224 Z Z" stroke-miterlimit="10"/></g><g transform="translate(-262,-54) scale(1,1)"><path fill="none" stroke="#000000" d="M 272 249 L 400 249" stroke-miterlimit="10"/></g><g transform="translate(-262,-54) scale(1,1)"><g><path fill="none" stroke="none"/><text fill="#000000" stroke="none" font-family="Arial" font-size="13px" font-style="normal" font-weight="bold" text-decoration="none" x="313.60546875" y="243.5">Class A</text></g></g><g transform="translate(-262,-54) scale(1,1)"><g><path fill="none" stroke="none"/><text fill="#000000" stroke="none" font-family="Arial" font-size="13px" font-style="normal" font-weight="normal" text-decoration="none" x="277" y="266.5">+do()</text></g></g><g transform="translate(-262,-54) scale(1,1)"><path fill="none" stroke="#000000" d="M 351 223 L 378 161" stroke-miterlimit="10"/></g><g transform="translate(-262,-54) scale(1,1)"><path fill="#FFFFFF" stroke="none" d="M 377.6036280562937 182.99642901205198 L 378 161 L 362.16589859442274 176.27354682704365"/></g><g transform="translate(-262,-54) scale(1,1)"><path fill="none" stroke="#000000" d="M 377.6036280562937 182.99642901205198 L 378 161 L 362.16589859442274 176.27354682704365 L 377.6036280562937 182.99642901205198" stroke-miterlimit="10"/></g><g transform="translate(-262,-54) scale(1,1)"><rect fill="#C0C0C0" stroke="none" x="503" y="231" width="128" height="96" opacity="0.2"/></g><g transform="translate(-262,-54) scale(1,1)"><rect fill="#ffffff" stroke="none" x="496" y="224" width="128" height="96"/></g><g transform="translate(-262,-54) scale(1,1)"><path fill="none" stroke="#000000" d="M 496 224 L 624 224 L 624 320 L 496 320 L 496 224 Z Z" stroke-miterlimit="10"/></g><g transform="translate(-262,-54) scale(1,1)"><path fill="none" stroke="#000000" d="M 496 249 L 624 249" stroke-miterlimit="10"/></g><g transform="translate(-262,-54) scale(1,1)"><path fill="none" stroke="#000000" d="M 496 272 L 624 272" stroke-miterlimit="10"/></g><g transform="translate(-262,-54) scale(1,1)"><g><path fill="none" stroke="none"/><text fill="#000000" stroke="none" font-family="Arial" font-size="13px" font-style="normal" font-weight="bold" text-decoration="none" x="528.931396484375" y="243.5">Composite</text></g></g><g transform="translate(-262,-54) scale(1,1)"><g><path fill="none" stroke="none"/><text fill="#000000" stroke="none" font-family="Arial" font-size="13px" font-style="normal" font-weight="normal" text-decoration="none" x="501" y="266.5">-childrenList</text></g></g><g transform="translate(-262,-54) scale(1,1)"><g><path fill="none" stroke="none"/><text fill="#000000" stroke="none" font-family="Arial" font-size="13px" font-style="normal" font-weight="normal" text-decoration="none" x="501" y="289.5">+do()</text></g></g><g transform="translate(-262,-54) scale(1,1)"><path fill="none" stroke="#000000" d="M 511 223 L 449 161" stroke-miterlimit="10"/></g><g transform="translate(-262,-54) scale(1,1)"><path fill="#FFFFFF" stroke="none" d="M 469.3253497152483 169.41903551203197 L 449 161 L 457.419035512032 181.3253497152483"/></g><g transform="translate(-262,-54) scale(1,1)"><path fill="none" stroke="#000000" d="M 469.3253497152483 169.41903551203197 L 449 161 L 457.419035512032 181.3253497152483 L 469.3253497152483 169.41903551203197" stroke-miterlimit="10"/></g><g transform="translate(-262,-54) scale(1,1)"><path fill="none" stroke="#000000" d="M 529 112 L 560 112 L 560 223" stroke-miterlimit="10"/></g><g transform="translate(-262,-54) scale(1,1)"><path fill="#FFFFFF" stroke="none" d="M 555.790482243984 212.83732514237585 L 560 223 L 564.209517756016 212.83732514237585 L 560 201"/></g><g transform="translate(-262,-54) scale(1,1)"><path fill="none" stroke="#000000" d="M 555.790482243984 212.83732514237585 L 560 223 L 564.209517756016 212.83732514237585 L 560 201 L 555.790482243984 212.83732514237585" stroke-miterlimit="10"/></g><g transform="translate(-262,-54) scale(1,1)"><path fill="#ffffff" stroke="none" d="M 496 352 L 613 352 L 623 362 L 623 415 L 496 415 L 496 352"/></g><g transform="translate(-262,-54) scale(1,1)"><path fill="none" stroke="#000000" d="M 496 352 L 613 352 L 623 362 L 623 415 L 496 415 L 496 352 L 496 352" stroke-miterlimit="10"/></g><g transform="translate(-262,-54) scale(1,1)"><path fill="none" stroke="#000000" d="M 613 352 L 613 362 L 623 362 L 613 352" stroke-miterlimit="10"/></g><g transform="translate(-262,-54) scale(1,1)"><g><path fill="none" stroke="none"/><text fill="#000000" stroke="none" font-family="Arial" font-size="13px" font-style="normal" font-weight="normal" text-decoration="none" x="501" y="370">+do()</text></g></g><g transform="translate(-262,-54) scale(1,1)"><g><path fill="none" stroke="none"/><text fill="#000000" stroke="none" font-family="Arial" font-size="13px" font-style="normal" font-weight="normal" text-decoration="none" x="501" y="385">{ childrenList.do() }</text></g></g><g transform="translate(-262,-54) scale(1,1)"><path fill="none" stroke="#000000" d="M 560 321 L 560 351" stroke-miterlimit="10" stroke-dasharray="3"/></g></g></svg>