<svg version="1.1" xmlns="http://www.w3.org/2000/svg" xmlns:xlink="http://www.w3.org/1999/xlink" width="596" height="436"><defs/><g><g transform="translate(-38,-70) scale(1,1)"><rect fill="#C0C0C0" stroke="none" x="119" y="439" width="224" height="64" opacity="0.2"/></g><g transform="translate(-38,-70) scale(1,1)"><rect fill="#ffffff" stroke="none" x="112" y="432" width="224" height="64"/></g><g transform="translate(-38,-70) scale(1,1)"><path fill="none" stroke="#000000" d="M 112 432 L 336 432 L 336 496 L 112 496 L 112 432 Z Z" stroke-miterlimit="10"/></g><g transform="translate(-38,-70) scale(1,1)"><path fill="none" stroke="#000000" d="M 112 457 L 336 457" stroke-miterlimit="10"/></g><g transform="translate(-38,-70) scale(1,1)"><g><path fill="none" stroke="none"/><text fill="#000000" stroke="none" font-family="Arial" font-size="13px" font-style="normal" font-weight="bold" text-decoration="none" x="210.2763671875" y="451.5">User</text></g></g><g transform="translate(-38,-70) scale(1,1)"><g><path fill="none" stroke="none"/><text fill="#000000" stroke="none" font-family="Arial" font-size="13px" font-style="normal" font-weight="normal" text-decoration="none" x="117" y="474.5">+cloneProduct(Product *product)</text></g></g><g transform="translate(-38,-70) scale(1,1)"><rect fill="#C0C0C0" stroke="none" x="167" y="311" width="128" height="64" opacity="0.2"/></g><g transform="translate(-38,-70) scale(1,1)"><rect fill="#ffffff" stroke="none" x="160" y="304" width="128" height="64"/></g><g transform="translate(-38,-70) scale(1,1)"><path fill="none" stroke="#000000" d="M 160 304 L 288 304 L 288 368 L 160 368 L 160 304 Z Z" stroke-miterlimit="10"/></g><g transform="translate(-38,-70) scale(1,1)"><path fill="none" stroke="#000000" d="M 160 329 L 288 329" stroke-miterlimit="10"/></g><g transform="translate(-38,-70) scale(1,1)"><g><path fill="none" stroke="none"/><text fill="#000000" stroke="none" font-family="Arial" font-size="13px" font-style="italic" font-weight="bold" text-decoration="none" x="175.951416015625" y="323.5">Abstract Product</text></g></g><g transform="translate(-38,-70) scale(1,1)"><g><path fill="none" stroke="none"/><text fill="#000000" stroke="none" font-family="Arial" font-size="13px" font-style="italic" font-weight="normal" text-decoration="none" x="165" y="346.5">+clone()</text></g></g><g transform="translate(-38,-70) scale(1,1)"><rect fill="#C0C0C0" stroke="none" x="247" y="183" width="128" height="64" opacity="0.2"/></g><g transform="translate(-38,-70) scale(1,1)"><rect fill="#ffffff" stroke="none" x="240" y="176" width="128" height="64"/></g><g transform="translate(-38,-70) scale(1,1)"><path fill="none" stroke="#000000" d="M 240 176 L 368 176 L 368 240 L 240 240 L 240 176 Z Z" stroke-miterlimit="10"/></g><g transform="translate(-38,-70) scale(1,1)"><path fill="none" stroke="#000000" d="M 240 201 L 368 201" stroke-miterlimit="10"/></g><g transform="translate(-38,-70) scale(1,1)"><g><path fill="none" stroke="none"/><text fill="#000000" stroke="none" font-family="Arial" font-size="13px" font-style="normal" font-weight="bold" text-decoration="none" x="275.457763671875" y="195.5">Product B</text></g></g><g transform="translate(-38,-70) scale(1,1)"><g><path fill="none" stroke="none"/><text fill="#000000" stroke="none" font-family="Arial" font-size="13px" font-style="italic" font-weight="normal" text-decoration="none" x="245" y="218.5">+clone()</text></g></g><g transform="translate(-38,-70) scale(1,1)"><rect fill="#C0C0C0" stroke="none" x="87" y="183" width="128" height="64" opacity="0.2"/></g><g transform="translate(-38,-70) scale(1,1)"><rect fill="#ffffff" stroke="none" x="80" y="176" width="128" height="64"/></g><g transform="translate(-38,-70) scale(1,1)"><path fill="none" stroke="#000000" d="M 80 176 L 208 176 L 208 240 L 80 240 L 80 176 Z Z" stroke-miterlimit="10"/></g><g transform="translate(-38,-70) scale(1,1)"><path fill="none" stroke="#000000" d="M 80 201 L 208 201" stroke-miterlimit="10"/></g><g transform="translate(-38,-70) scale(1,1)"><g><path fill="none" stroke="none"/><text fill="#000000" stroke="none" font-family="Arial" font-size="13px" font-style="normal" font-weight="bold" text-decoration="none" x="115.457763671875" y="195.5">Product A</text></g></g><g transform="translate(-38,-70) scale(1,1)"><g><path fill="none" stroke="none"/><text fill="#000000" stroke="none" font-family="Arial" font-size="13px" font-style="italic" font-weight="normal" text-decoration="none" x="85" y="218.5">+clone()</text></g></g><g transform="translate(-38,-70) scale(1,1)"><path fill="none" stroke="#000000" d="M 283 241 L 245 303" stroke-miterlimit="10"/></g><g transform="translate(-38,-70) scale(1,1)"><path fill="#FFFFFF" stroke="none" d="M 248.44317635368196 281.27111285414173 L 245 303 L 262.79933679698325 290.07004990003605"/></g><g transform="translate(-38,-70) scale(1,1)"><path fill="none" stroke="#000000" d="M 248.44317635368196 281.27111285414173 L 245 303 L 262.79933679698325 290.07004990003605 L 248.44317635368196 281.27111285414173" stroke-miterlimit="10"/></g><g transform="translate(-38,-70) scale(1,1)"><path fill="none" stroke="#000000" d="M 165 241 L 203 303" stroke-miterlimit="10"/></g><g transform="translate(-38,-70) scale(1,1)"><path fill="#FFFFFF" stroke="none" d="M 185.20066320301672 290.07004990003605 L 203 303 L 199.55682364631804 281.27111285414173"/></g><g transform="translate(-38,-70) scale(1,1)"><path fill="none" stroke="#000000" d="M 185.20066320301672 290.07004990003605 L 203 303 L 199.55682364631804 281.27111285414173 L 185.20066320301672 290.07004990003605" stroke-miterlimit="10"/></g><g transform="translate(-38,-70) scale(1,1)"><path fill="none" stroke="#000000" d="M 224 431 L 224 369" stroke-miterlimit="10" stroke-dasharray="3"/></g><g transform="translate(-38,-70) scale(1,1)"><path fill="none" stroke="#000000" d="M 228.209517756016 379.16267485762415 L 224 369 L 219.790482243984 379.16267485762415" stroke-miterlimit="10"/></g><g transform="translate(-38,-70) scale(1,1)"><path fill="#ffffff" stroke="none" d="M 400 432 L 613 432 L 623 442 L 623 495 L 400 495 L 400 432"/></g><g transform="translate(-38,-70) scale(1,1)"><path fill="none" stroke="#000000" d="M 400 432 L 613 432 L 623 442 L 623 495 L 400 495 L 400 432 L 400 432" stroke-miterlimit="10"/></g><g transform="translate(-38,-70) scale(1,1)"><path fill="none" stroke="#000000" d="M 613 432 L 613 442 L 623 442 L 613 432" stroke-miterlimit="10"/></g><g transform="translate(-38,-70) scale(1,1)"><g><path fill="none" stroke="none"/><text fill="#000000" stroke="none" font-family="Arial" font-size="13px" font-style="normal" font-weight="normal" text-decoration="none" x="405" y="450">+cloneProduct(in Product *product)</text></g></g><g transform="translate(-38,-70) scale(1,1)"><g><path fill="none" stroke="none"/><text fill="#000000" stroke="none" font-family="Arial" font-size="13px" font-style="normal" font-weight="normal" text-decoration="none" x="405" y="465">{ return product-&gt;clone() }</text></g></g><g transform="translate(-38,-70) scale(1,1)"><path fill="none" stroke="#000000" d="M 337 464 L 399 464" stroke-miterlimit="10" stroke-dasharray="3"/></g><g transform="translate(-38,-70) scale(1,1)"><path fill="#ffffff" stroke="none" d="M 48 80 L 197 80 L 207 90 L 207 143 L 48 143 L 48 80"/></g><g transform="translate(-38,-70) scale(1,1)"><path fill="none" stroke="#000000" d="M 48 80 L 197 80 L 207 90 L 207 143 L 48 143 L 48 80 L 48 80" stroke-miterlimit="10"/></g><g transform="translate(-38,-70) scale(1,1)"><path fill="none" stroke="#000000" d="M 197 80 L 197 90 L 207 90 L 197 80" stroke-miterlimit="10"/></g><g transform="translate(-38,-70) scale(1,1)"><g><path fill="none" stroke="none"/><text fill="#000000" stroke="none" font-family="Arial" font-size="13px" font-style="normal" font-weight="normal" text-decoration="none" x="53" y="98">+clone()</text></g></g><g transform="translate(-38,-70) scale(1,1)"><g><path fill="none" stroke="none"/><text fill="#000000" stroke="none" font-family="Arial" font-size="13px" font-style="normal" font-weight="normal" text-decoration="none" x="53" y="113">{ return copy of self }</text></g></g><g transform="translate(-38,-70) scale(1,1)"><path fill="#ffffff" stroke="none" d="M 240 80 L 389 80 L 399 90 L 399 143 L 240 143 L 240 80"/></g><g transform="translate(-38,-70) scale(1,1)"><path fill="none" stroke="#000000" d="M 240 80 L 389 80 L 399 90 L 399 143 L 240 143 L 240 80 L 240 80" stroke-miterlimit="10"/></g><g transform="translate(-38,-70) scale(1,1)"><path fill="none" stroke="#000000" d="M 389 80 L 389 90 L 399 90 L 389 80" stroke-miterlimit="10"/></g><g transform="translate(-38,-70) scale(1,1)"><g><path fill="none" stroke="none"/><text fill="#000000" stroke="none" font-family="Arial" font-size="13px" font-style="normal" font-weight="normal" text-decoration="none" x="245" y="98">+clone()</text></g></g><g transform="translate(-38,-70) scale(1,1)"><g><path fill="none" stroke="none"/><text fill="#000000" stroke="none" font-family="Arial" font-size="13px" font-style="normal" font-weight="normal" text-decoration="none" x="245" y="113">{ return copy of self }</text></g></g><g transform="translate(-38,-70) scale(1,1)"><path fill="none" stroke="#000000" d="M 134 145 L 139 175" stroke-miterlimit="10" stroke-dasharray="3"/></g><g transform="translate(-38,-70) scale(1,1)"><path fill="none" stroke="#000000" d="M 315 145 L 310 175" stroke-miterlimit="10" stroke-dasharray="3"/></g></g></svg>